<svg id="svg" version="1.1" xmlns="http://www.w3.org/2000/svg" xmlns:xlink="http://www.w3.org/1999/xlink" width="400" height="187.5" viewBox="0, 0, 400,187.5"><g id="svgg"><path id="path0" d="M153.586 0.110 C 153.586 0.199,168.888 19.983,171.124 22.785 C 171.652 23.447,174.947 27.680,176.310 29.448 C 176.586 29.806,178.527 32.302,180.624 34.996 C 182.720 37.690,187.212 43.470,190.606 47.842 C 194.000 52.213,197.214 56.338,197.749 57.009 C 198.283 57.679,200.352 60.338,202.346 62.916 C 204.340 65.495,206.406 68.153,206.938 68.823 C 207.965 70.120,209.819 72.505,215.533 79.887 C 217.489 82.414,219.398 84.862,219.775 85.326 C 220.152 85.790,221.300 87.257,222.326 88.586 C 223.352 89.915,224.993 92.035,225.973 93.297 C 226.953 94.559,229.645 98.029,231.956 101.007 C 234.268 103.986,236.596 106.971,237.130 107.642 C 237.664 108.312,240.196 111.561,242.757 114.862 C 245.318 118.162,247.851 121.411,248.385 122.082 C 249.658 123.680,261.478 138.883,262.447 140.168 C 262.860 140.715,264.674 143.047,266.479 145.351 C 268.284 147.655,269.930 149.767,270.136 150.045 C 270.342 150.324,271.228 151.464,272.105 152.579 C 272.982 153.694,273.868 154.835,274.074 155.113 C 274.280 155.392,275.884 157.449,277.637 159.684 C 280.957 163.918,281.163 164.183,282.700 166.190 C 284.106 168.026,286.998 171.742,288.795 174.022 C 291.070 176.908,294.029 180.716,295.735 182.952 C 296.200 183.561,297.198 184.841,297.953 185.795 L 299.326 187.529 349.663 187.529 L 400.000 187.529 400.000 159.500 L 400.000 131.470 397.797 128.634 C 396.585 127.073,395.256 125.350,394.843 124.803 C 394.430 124.256,392.658 121.974,390.905 119.731 C 387.868 115.847,387.361 115.195,385.643 112.966 C 384.500 111.484,381.436 107.537,380.497 106.337 C 377.758 102.836,375.514 99.948,371.308 94.515 C 368.714 91.163,366.332 88.094,366.016 87.695 C 365.406 86.925,363.111 83.975,362.274 82.884 C 361.999 82.525,359.735 79.616,357.244 76.418 C 351.006 68.411,348.651 65.379,347.773 64.221 C 347.361 63.677,344.407 59.882,341.210 55.787 C 338.012 51.693,335.059 47.896,334.646 47.349 C 333.848 46.292,330.364 41.808,326.946 37.438 C 323.630 33.198,316.935 24.585,315.903 23.229 C 315.382 22.545,312.339 18.632,309.142 14.534 C 305.945 10.436,302.949 6.585,302.485 5.978 C 302.021 5.370,300.797 3.779,299.766 2.442 L 297.890 0.011 225.738 0.006 C 186.055 0.002,153.586 0.050,153.586 0.110 M308.783 0.703 C 309.815 2.074,315.117 8.920,315.789 9.752 C 316.624 10.783,327.225 24.408,328.270 25.791 C 328.954 26.697,335.031 34.494,344.179 46.205 C 346.122 48.692,348.163 51.317,348.714 52.039 C 349.550 53.133,354.225 59.137,357.038 62.729 C 357.885 63.810,359.877 66.365,361.094 67.932 C 361.555 68.526,362.332 69.517,362.822 70.135 L 363.713 71.260 369.690 71.260 C 374.445 71.261,375.630 71.213,375.484 71.027 C 375.027 70.443,370.592 64.720,370.089 64.064 C 369.780 63.661,369.189 62.890,368.776 62.349 C 368.364 61.809,367.309 60.452,366.432 59.334 C 365.556 58.216,364.669 57.075,364.463 56.799 C 363.776 55.877,360.367 51.489,359.674 50.633 C 359.298 50.169,357.097 47.342,354.782 44.351 C 352.468 41.360,349.269 37.237,347.673 35.190 C 346.078 33.143,344.435 31.019,344.023 30.470 C 343.241 29.429,339.881 25.107,336.321 20.560 C 332.611 15.822,325.461 6.609,322.269 2.453 L 320.394 0.011 314.324 0.006 L 308.254 -0.000 308.783 0.703 M219.034 116.414 C 219.034 116.494,219.477 117.119,220.019 117.802 C 221.465 119.629,233.691 135.335,234.130 135.931 C 234.337 136.211,236.404 138.873,238.725 141.846 C 241.045 144.820,243.746 148.287,244.726 149.551 C 245.706 150.815,248.237 154.062,250.352 156.765 C 252.466 159.468,254.534 162.126,254.946 162.672 C 255.359 163.217,257.004 165.326,258.603 167.358 C 260.202 169.390,261.847 171.499,262.260 172.045 C 262.672 172.590,263.558 173.733,264.229 174.584 C 264.899 175.435,265.743 176.525,266.104 177.006 C 266.465 177.487,267.394 178.680,268.168 179.657 C 268.942 180.635,269.800 181.730,270.075 182.091 C 270.350 182.452,271.259 183.618,272.095 184.683 C 272.930 185.748,273.749 186.824,273.913 187.074 L 274.211 187.529 280.190 187.529 C 285.649 187.529,286.618 187.454,286.006 187.075 C 285.916 187.019,285.247 186.192,284.520 185.236 C 283.793 184.280,282.049 182.021,280.645 180.216 C 279.241 178.411,277.610 176.309,277.021 175.544 C 276.431 174.780,275.441 173.514,274.820 172.731 C 274.199 171.949,272.849 170.218,271.820 168.885 C 268.678 164.816,268.517 164.608,266.292 161.748 C 265.105 160.223,263.797 158.530,263.385 157.986 C 262.972 157.442,261.917 156.084,261.041 154.969 C 260.164 153.854,259.278 152.713,259.072 152.433 C 258.865 152.154,257.424 150.295,255.869 148.302 C 254.313 146.309,251.113 142.189,248.757 139.147 C 246.402 136.104,244.073 133.108,243.583 132.489 C 243.093 131.871,241.863 130.296,240.849 128.991 C 239.836 127.686,237.197 124.289,234.986 121.443 L 230.966 116.268 225.000 116.268 C 221.719 116.268,219.034 116.334,219.034 116.414 M201.594 124.633 C 201.594 124.696,202.164 125.472,202.860 126.359 C 203.556 127.245,204.294 128.195,204.501 128.469 C 205.571 129.890,209.756 135.298,212.616 138.956 C 212.897 139.315,214.207 141.003,215.527 142.707 C 219.919 148.376,220.808 149.520,221.860 150.855 C 223.637 153.111,229.964 161.252,230.755 162.301 C 231.608 163.433,237.569 171.105,239.356 173.371 C 240.457 174.767,244.250 179.650,245.601 181.411 C 245.928 181.836,247.111 183.366,248.232 184.810 L 250.268 187.436 256.310 187.485 L 262.352 187.534 261.587 186.547 C 261.166 186.004,260.372 184.970,259.822 184.248 C 258.957 183.112,258.046 181.940,255.321 178.456 C 255.012 178.061,254.421 177.293,254.008 176.751 C 253.596 176.208,252.288 174.517,251.102 172.993 C 249.916 171.468,248.551 169.706,248.070 169.077 C 247.588 168.447,246.829 167.462,246.382 166.888 C 245.145 165.297,241.350 160.399,240.521 159.323 C 239.874 158.483,233.599 150.373,231.222 147.304 C 230.743 146.685,230.020 145.748,229.615 145.222 C 229.211 144.696,228.162 143.348,227.286 142.227 C 226.409 141.106,225.523 139.967,225.316 139.695 C 224.098 138.088,222.564 136.103,220.691 133.708 C 219.521 132.213,217.441 129.534,216.069 127.754 L 213.575 124.519 207.584 124.519 C 204.290 124.519,201.594 124.571,201.594 124.633 " stroke="none" fill="#fc8b04" fill-rule="evenodd"></path><path id="path1" d="M0.000 93.765 L 0.000 187.529 125.011 187.529 C 247.699 187.529,250.018 187.523,249.765 187.174 C 249.624 186.978,248.495 185.534,247.257 183.965 C 245.111 181.244,244.671 180.679,242.944 178.422 C 242.532 177.883,241.224 176.199,240.038 174.680 C 238.851 173.160,237.543 171.470,237.131 170.924 C 236.350 169.890,236.265 169.781,233.662 166.457 C 232.785 165.337,231.730 163.973,231.317 163.425 C 230.905 162.877,230.272 162.054,229.911 161.596 C 228.500 159.806,224.903 155.184,224.191 154.248 C 223.779 153.705,222.471 152.017,221.285 150.497 C 219.306 147.961,218.676 147.146,217.065 145.037 C 216.756 144.632,215.785 143.387,214.909 142.270 C 214.032 141.154,212.977 139.791,212.564 139.241 C 211.770 138.183,211.147 137.380,208.783 134.365 C 207.232 132.387,207.179 132.319,205.497 130.128 C 204.910 129.364,203.709 127.811,202.828 126.676 C 201.947 125.541,201.224 124.550,201.222 124.473 C 201.220 124.395,204.030 124.332,207.466 124.332 L 213.713 124.332 214.107 124.848 C 214.324 125.131,214.895 125.870,215.376 126.489 C 215.856 127.107,216.701 128.204,217.254 128.926 C 219.423 131.764,223.351 136.818,223.593 137.084 C 223.734 137.239,224.193 137.829,224.614 138.397 C 225.452 139.528,230.154 145.593,231.017 146.658 C 231.314 147.024,231.971 147.868,232.477 148.533 C 232.983 149.198,233.815 150.278,234.326 150.932 C 234.837 151.587,235.593 152.565,236.006 153.107 C 237.527 155.106,241.765 160.566,242.564 161.556 C 242.813 161.866,243.254 162.431,243.543 162.813 C 244.042 163.470,244.558 164.135,248.383 169.058 C 249.265 170.192,250.440 171.711,250.995 172.433 C 251.549 173.155,252.397 174.252,252.879 174.871 C 253.361 175.490,254.211 176.587,254.768 177.309 C 255.325 178.031,256.504 179.550,257.388 180.684 C 258.272 181.819,259.477 183.380,260.065 184.154 C 260.653 184.927,261.282 185.724,261.463 185.924 C 261.644 186.124,261.981 186.567,262.213 186.907 L 262.635 187.527 268.343 187.528 L 274.050 187.529 273.577 187.014 C 273.316 186.730,272.904 186.203,272.660 185.842 C 272.416 185.481,272.145 185.135,272.056 185.074 C 271.968 185.012,271.584 184.536,271.203 184.016 C 270.823 183.496,269.794 182.156,268.917 181.039 C 268.040 179.922,267.154 178.785,266.948 178.514 C 266.307 177.668,264.476 175.303,263.476 174.027 C 262.052 172.211,260.452 170.151,259.862 169.372 C 259.575 168.993,259.228 168.548,259.092 168.384 C 258.956 168.219,258.394 167.502,257.845 166.790 C 257.295 166.077,256.249 164.735,255.520 163.807 C 253.808 161.627,253.236 160.890,252.321 159.682 C 250.607 157.421,247.969 154.038,247.433 153.413 C 247.116 153.044,246.655 152.447,246.407 152.086 C 246.160 151.725,245.847 151.317,245.714 151.179 C 245.580 151.041,245.240 150.619,244.958 150.242 C 244.676 149.864,243.684 148.584,242.753 147.398 C 241.821 146.212,240.893 145.023,240.689 144.755 C 239.874 143.685,238.125 141.423,237.222 140.272 C 236.020 138.740,234.383 136.635,233.286 135.213 C 232.822 134.610,232.147 133.744,231.786 133.286 C 231.425 132.829,230.624 131.788,230.005 130.972 C 229.386 130.156,228.767 129.371,228.630 129.226 C 228.493 129.081,228.028 128.501,227.598 127.937 C 225.365 125.006,224.736 124.195,221.902 120.601 C 221.365 119.920,220.594 118.898,220.190 118.331 C 219.786 117.764,219.276 117.139,219.057 116.942 C 218.838 116.746,218.659 116.514,218.659 116.427 C 218.659 116.339,221.507 116.270,224.988 116.272 L 231.317 116.276 232.255 117.518 C 235.138 121.337,238.048 125.093,238.831 126.006 C 239.147 126.374,239.607 126.971,239.853 127.332 C 240.099 127.693,240.348 128.031,240.407 128.083 C 240.548 128.208,245.560 134.619,247.070 136.607 C 247.482 137.150,248.368 138.290,249.039 139.142 C 250.220 140.641,250.549 141.067,252.823 144.038 C 253.993 145.566,256.942 149.336,257.432 149.930 C 257.797 150.372,258.800 151.667,260.191 153.493 C 261.147 154.747,263.504 157.771,264.698 159.273 C 265.007 159.662,265.598 160.432,266.010 160.983 C 266.689 161.890,269.694 165.738,270.632 166.901 C 270.840 167.159,271.721 168.298,272.591 169.433 C 273.461 170.567,274.931 172.466,275.858 173.652 C 276.786 174.838,277.861 176.221,278.247 176.726 C 278.634 177.230,279.452 178.285,280.066 179.070 C 280.680 179.855,281.650 181.096,282.222 181.828 C 284.327 184.520,286.161 186.882,286.397 187.204 C 286.621 187.510,287.094 187.531,292.790 187.485 L 298.942 187.436 297.592 185.748 C 296.401 184.258,295.628 183.263,293.613 180.624 C 293.324 180.245,292.938 179.761,292.755 179.548 C 292.572 179.336,292.078 178.703,291.656 178.142 C 291.234 177.581,290.164 176.193,289.277 175.059 C 288.390 173.924,287.223 172.422,286.683 171.720 C 286.143 171.019,285.119 169.711,284.408 168.814 C 283.234 167.332,281.893 165.598,280.490 163.746 C 280.203 163.367,279.823 162.891,279.646 162.688 C 279.470 162.484,279.030 161.924,278.669 161.443 C 278.308 160.961,277.295 159.653,276.418 158.536 C 275.541 157.419,274.655 156.282,274.449 156.010 C 273.808 155.165,271.978 152.800,270.977 151.524 C 269.553 149.708,267.953 147.647,267.363 146.869 C 267.076 146.489,266.729 146.045,266.593 145.880 C 266.457 145.716,265.896 144.998,265.346 144.286 C 264.796 143.574,263.748 142.232,263.017 141.303 C 262.286 140.375,261.521 139.397,261.317 139.129 C 260.513 138.073,258.757 135.802,257.850 134.646 C 256.426 132.830,254.826 130.770,254.236 129.991 C 253.949 129.612,253.602 129.167,253.466 129.002 C 253.330 128.838,252.768 128.121,252.219 127.408 C 251.669 126.696,250.621 125.354,249.890 124.426 C 249.159 123.497,248.394 122.519,248.190 122.252 C 247.386 121.195,245.630 118.925,244.723 117.768 C 243.299 115.953,241.699 113.892,241.109 113.113 C 240.822 112.734,240.446 112.255,240.274 112.049 C 240.102 111.842,239.662 111.285,239.296 110.810 C 238.930 110.336,237.914 109.028,237.037 107.905 C 235.357 105.753,234.788 105.017,233.568 103.417 C 231.556 100.780,229.195 97.755,228.680 97.154 C 228.363 96.785,227.905 96.188,227.661 95.827 C 227.416 95.466,226.958 94.868,226.642 94.498 C 226.067 93.825,223.764 90.874,220.434 86.545 C 219.879 85.823,218.994 84.684,218.469 84.013 C 217.107 82.277,215.514 80.227,214.534 78.948 C 214.069 78.343,213.437 77.526,213.128 77.133 C 210.703 74.049,209.123 72.030,208.809 71.619 C 207.994 70.549,206.245 68.287,205.342 67.135 C 203.980 65.400,202.387 63.349,201.406 62.071 C 200.942 61.466,200.310 60.649,200.001 60.255 C 197.576 57.171,195.996 55.153,195.682 54.741 C 194.867 53.671,193.118 51.409,192.214 50.258 C 190.142 47.615,189.095 46.262,188.467 45.413 C 188.106 44.925,187.172 43.726,186.391 42.750 C 185.610 41.774,184.724 40.638,184.422 40.225 C 184.120 39.812,183.760 39.357,183.623 39.212 C 183.486 39.067,183.021 38.487,182.591 37.923 C 180.730 35.479,180.243 34.849,179.090 33.385 C 178.420 32.534,177.534 31.397,177.121 30.859 C 175.829 29.173,174.257 27.145,173.260 25.879 C 172.732 25.209,171.824 24.042,171.241 23.286 C 170.659 22.531,169.930 21.597,169.620 21.210 C 169.311 20.824,168.636 19.955,168.120 19.280 C 165.780 16.215,163.571 13.380,163.044 12.766 C 162.728 12.397,162.265 11.800,162.016 11.439 C 161.766 11.078,160.886 9.931,160.059 8.889 C 159.232 7.847,158.050 6.340,157.431 5.541 C 156.812 4.741,155.926 3.601,155.462 3.006 C 154.998 2.412,154.282 1.493,153.871 0.963 L 153.125 0.000 76.563 0.000 L 0.000 0.000 0.000 93.765 M298.294 0.234 C 298.373 0.363,299.080 1.271,299.864 2.250 C 300.648 3.230,301.664 4.524,302.121 5.125 C 303.665 7.152,303.875 7.422,308.214 12.957 C 308.827 13.740,309.794 14.989,310.361 15.732 C 310.928 16.476,311.974 17.819,312.685 18.716 C 313.396 19.613,314.429 20.938,314.980 21.660 C 315.531 22.382,316.679 23.870,317.531 24.966 C 323.290 32.375,323.346 32.447,325.926 35.732 C 326.803 36.848,327.900 38.260,328.364 38.870 C 328.828 39.480,329.461 40.296,329.770 40.684 C 330.080 41.071,330.810 42.013,331.393 42.776 C 331.977 43.539,333.180 45.091,334.068 46.226 C 334.956 47.361,336.124 48.865,336.664 49.570 C 337.205 50.275,337.990 51.288,338.409 51.821 C 339.653 53.401,341.329 55.555,342.390 56.935 C 343.539 58.431,343.958 58.966,345.084 60.384 C 346.124 61.694,348.407 64.619,348.898 65.271 C 349.459 66.016,351.287 68.379,352.371 69.761 C 353.592 71.319,355.253 73.467,356.212 74.732 C 356.624 75.276,358.017 77.055,359.306 78.685 C 360.595 80.315,361.819 81.875,362.025 82.152 C 362.727 83.093,364.515 85.414,365.992 87.299 C 366.801 88.333,367.717 89.503,368.026 89.898 C 368.336 90.294,368.926 91.063,369.339 91.608 C 369.752 92.153,371.144 93.933,372.433 95.563 C 373.722 97.193,374.946 98.753,375.152 99.030 C 375.843 99.956,377.633 102.278,379.263 104.360 C 380.151 105.495,381.319 107.000,381.859 107.704 C 382.399 108.409,383.184 109.422,383.604 109.955 C 384.023 110.488,384.894 111.599,385.540 112.424 C 386.185 113.249,386.851 114.093,387.019 114.299 C 387.393 114.758,388.442 116.115,389.775 117.862 C 390.325 118.584,391.502 120.103,392.390 121.238 C 393.278 122.372,394.446 123.874,394.986 124.576 C 395.526 125.278,396.715 126.797,397.627 127.952 C 398.540 129.107,399.444 130.263,399.637 130.520 C 399.980 130.979,399.988 129.524,399.994 65.495 L 400.000 0.000 360.326 0.000 C 328.636 0.000,320.682 0.047,320.797 0.234 C 320.877 0.363,321.583 1.271,322.367 2.250 C 323.151 3.230,324.167 4.524,324.625 5.125 C 325.083 5.727,325.710 6.537,326.020 6.926 C 326.329 7.315,327.059 8.257,327.643 9.020 C 328.226 9.784,329.429 11.336,330.315 12.471 C 331.202 13.605,332.243 14.946,332.630 15.450 C 333.323 16.354,334.449 17.799,336.568 20.505 C 337.161 21.262,338.111 22.493,338.678 23.241 C 339.245 23.988,339.824 24.722,339.964 24.871 C 340.104 25.020,340.581 25.625,341.024 26.214 C 341.466 26.803,342.554 28.214,343.441 29.348 C 344.328 30.483,345.370 31.824,345.757 32.328 C 347.031 33.989,348.670 36.085,349.364 36.943 C 349.740 37.407,350.422 38.283,350.879 38.889 C 352.795 41.425,353.321 42.105,355.556 44.930 C 356.845 46.560,358.068 48.118,358.275 48.393 C 358.821 49.120,360.644 51.477,361.747 52.883 C 362.969 54.441,364.629 56.590,365.588 57.855 C 366.001 58.399,367.393 60.180,368.683 61.812 C 369.972 63.444,371.280 65.113,371.589 65.521 C 372.520 66.746,373.586 68.133,374.833 69.740 L 376.013 71.261 369.676 71.260 L 363.338 71.259 362.025 69.554 C 360.496 67.568,359.215 65.922,358.174 64.604 C 357.766 64.088,356.878 62.949,356.201 62.072 C 355.524 61.195,354.835 60.314,354.671 60.114 C 354.233 59.580,352.760 57.683,351.899 56.544 C 350.278 54.400,347.556 50.908,347.011 50.272 C 346.694 49.903,346.236 49.306,345.992 48.945 C 345.747 48.584,345.289 47.987,344.972 47.618 C 344.656 47.248,343.807 46.165,343.085 45.209 C 342.363 44.254,341.680 43.373,341.568 43.252 C 341.361 43.029,340.614 42.072,338.764 39.662 C 338.209 38.940,337.325 37.801,336.800 37.131 C 334.727 34.488,333.680 33.135,333.052 32.286 C 332.691 31.798,331.757 30.599,330.976 29.623 C 330.196 28.647,329.310 27.511,329.008 27.098 C 328.707 26.685,328.409 26.306,328.346 26.254 C 328.237 26.164,327.889 25.719,325.637 22.785 C 325.082 22.063,324.198 20.924,323.673 20.253 C 322.243 18.431,320.685 16.424,319.737 15.186 C 319.273 14.579,318.475 13.551,317.964 12.902 C 317.452 12.252,316.524 11.062,315.901 10.258 C 315.278 9.453,314.515 8.476,314.205 8.086 C 313.896 7.697,313.162 6.752,312.574 5.986 C 311.986 5.221,311.037 4.004,310.465 3.282 C 309.893 2.560,309.108 1.529,308.721 0.992 L 308.017 0.014 303.083 0.007 C 299.183 0.001,298.180 0.049,298.294 0.234 " stroke="none" fill="#fcfbfb" fill-rule="evenodd"></path><path id="path2" d="" stroke="none" fill="#fcd19a" fill-rule="evenodd"></path><path id="path3" d="M201.406 124.473 C 201.406 124.550,204.116 124.590,207.429 124.561 C 212.095 124.521,213.520 124.563,213.758 124.749 C 214.031 124.962,214.037 124.953,213.807 124.660 C 213.536 124.314,201.407 124.131,201.406 124.473 " stroke="none" fill="#fcb47e" fill-rule="evenodd"></path><path id="path4" d="" stroke="none" fill="#fce7c8" fill-rule="evenodd"></path><path id="path5" d="M367.264 60.446 C 367.553 60.825,367.827 61.135,367.874 61.135 C 368.004 61.135,367.192 60.038,366.952 59.889 C 366.835 59.817,366.976 60.067,367.264 60.446 M369.245 63.010 C 369.572 63.422,369.881 63.760,369.933 63.760 C 369.985 63.760,369.759 63.422,369.433 63.010 C 369.106 62.597,368.796 62.260,368.745 62.260 C 368.693 62.260,368.918 62.597,369.245 63.010 M357.243 63.197 C 357.570 63.610,357.880 63.947,357.931 63.947 C 357.983 63.947,357.758 63.610,357.431 63.197 C 357.104 62.785,356.795 62.447,356.743 62.447 C 356.691 62.447,356.917 62.785,357.243 63.197 M359.191 65.691 C 359.589 66.176,359.953 66.573,360.001 66.573 C 360.129 66.573,358.941 65.101,358.686 64.943 C 358.566 64.869,358.794 65.206,359.191 65.691 M374.496 69.761 C 374.823 70.173,375.132 70.511,375.184 70.511 C 375.235 70.511,375.010 70.173,374.684 69.761 C 374.357 69.348,374.047 69.011,373.996 69.011 C 373.944 69.011,374.169 69.348,374.496 69.761 M363.056 70.652 C 363.302 70.987,363.532 71.261,363.567 71.261 C 363.710 71.261,363.245 70.558,362.937 70.308 C 362.735 70.144,362.780 70.275,363.056 70.652 M395.312 125.457 C 395.639 125.870,395.948 126.207,396.000 126.207 C 396.051 126.207,395.826 125.870,395.499 125.457 C 395.173 125.045,394.863 124.707,394.811 124.707 C 394.760 124.707,394.985 125.045,395.312 125.457 M399.250 130.520 C 399.577 130.933,399.886 131.271,399.938 131.271 C 399.989 131.271,399.764 130.933,399.437 130.520 C 399.111 130.108,398.801 129.770,398.750 129.770 C 398.698 129.770,398.923 130.108,399.250 130.520 M267.686 163.587 C 267.975 163.966,268.249 164.276,268.296 164.276 C 268.426 164.276,267.614 163.179,267.374 163.030 C 267.257 162.958,267.398 163.209,267.686 163.587 M282.232 165.776 C 282.558 166.188,282.868 166.526,282.919 166.526 C 282.971 166.526,282.746 166.188,282.419 165.776 C 282.092 165.363,281.783 165.026,281.731 165.026 C 281.680 165.026,281.905 165.363,282.232 165.776 M248.660 169.896 C 248.878 170.202,249.152 170.512,249.269 170.584 C 249.386 170.657,249.246 170.406,248.957 170.027 C 248.330 169.206,248.094 169.101,248.660 169.896 M273.605 171.214 C 273.932 171.627,274.242 171.964,274.293 171.964 C 274.345 171.964,274.120 171.627,273.793 171.214 C 273.466 170.802,273.156 170.464,273.105 170.464 C 273.053 170.464,273.278 170.802,273.605 171.214 M261.603 171.402 C 261.930 171.814,262.240 172.152,262.291 172.152 C 262.343 172.152,262.118 171.814,261.791 171.402 C 261.464 170.989,261.155 170.652,261.103 170.652 C 261.051 170.652,261.277 170.989,261.603 171.402 M254.477 177.403 C 254.804 177.815,255.114 178.153,255.165 178.153 C 255.217 178.153,254.992 177.815,254.665 177.403 C 254.338 176.990,254.028 176.653,253.977 176.653 C 253.925 176.653,254.151 176.990,254.477 177.403 M278.856 177.965 C 279.183 178.378,279.492 178.715,279.544 178.715 C 279.596 178.715,279.370 178.378,279.044 177.965 C 278.717 177.553,278.407 177.215,278.356 177.215 C 278.304 177.215,278.529 177.553,278.856 177.965 M258.415 182.466 C 258.742 182.879,259.052 183.216,259.103 183.216 C 259.155 183.216,258.930 182.879,258.603 182.466 C 258.276 182.053,257.967 181.716,257.915 181.716 C 257.863 181.716,258.089 182.053,258.415 182.466 M246.414 182.654 C 246.740 183.066,247.050 183.404,247.101 183.404 C 247.153 183.404,246.928 183.066,246.601 182.654 C 246.274 182.241,245.965 181.903,245.913 181.903 C 245.862 181.903,246.087 182.241,246.414 182.654 M295.359 182.654 C 295.685 183.066,295.995 183.404,296.047 183.404 C 296.098 183.404,295.873 183.066,295.546 182.654 C 295.219 182.241,294.910 181.903,294.858 181.903 C 294.807 181.903,295.032 182.241,295.359 182.654 M282.794 183.029 C 283.121 183.441,283.430 183.779,283.482 183.779 C 283.534 183.779,283.308 183.441,282.982 183.029 C 282.655 182.616,282.345 182.278,282.294 182.278 C 282.242 182.278,282.467 182.616,282.794 183.029 M270.792 183.216 C 271.119 183.629,271.429 183.966,271.480 183.966 C 271.532 183.966,271.307 183.629,270.980 183.216 C 270.653 182.804,270.344 182.466,270.292 182.466 C 270.240 182.466,270.466 182.804,270.792 183.216 M260.291 184.904 C 260.617 185.316,260.927 185.654,260.979 185.654 C 261.030 185.654,260.805 185.316,260.478 184.904 C 260.151 184.491,259.842 184.154,259.790 184.154 C 259.739 184.154,259.964 184.491,260.291 184.904 " stroke="none" fill="#fcce63" fill-rule="evenodd"></path><path id="path6" d="" stroke="none" fill="#fcecdd" fill-rule="evenodd"></path><path id="path7" d="" stroke="none" fill="#fcf4e0" fill-rule="evenodd"></path><path id="path8" d="" stroke="none" fill="#fcd4bc" fill-rule="evenodd"></path></g></svg>