<svg width="92" height="91" viewBox="0 0 92 91" fill="none" xmlns="http://www.w3.org/2000/svg">
<path d="M67.363 4.04336L68.6725 3.36135L69.9819 4.04336L69.7394 2.58191L70.8064 1.55889L69.3514 1.31531L68.6725 0L68.042 1.31531L66.5386 1.55889L67.6055 2.58191L67.363 4.04336Z" fill="url(#paint0_linear)"/>
<path d="M61.0586 27.4754C62.562 30.1547 64.4534 32.6392 66.5873 34.7826C64.9384 32.2007 63.3864 29.6188 62.1255 26.9395C60.8646 24.2602 59.9431 21.386 59.6036 18.5118C59.2641 15.6376 59.7006 12.6659 60.9131 9.98661C62.1255 7.35599 64.1139 4.96895 66.5873 3.26392C63.7744 4.4818 61.398 6.7227 59.8946 9.49946C59.1187 10.8635 58.6337 12.4224 58.3427 13.9813C58.0517 15.5401 58.0032 17.1477 58.1972 18.7066C58.4397 21.8244 59.5551 24.796 61.0586 27.4754Z" fill="url(#paint1_linear)"/>
<path d="M29.4865 32.6392C29.826 32.6392 30.1654 32.6392 30.4564 32.6392C31.0384 34.0032 31.5234 35.075 31.8629 35.8544C32.4448 37.0723 32.8813 37.9979 33.1238 38.5337C33.7543 37.3159 34.1907 36.3416 34.5302 35.7083C35.1607 34.2955 35.6457 33.2725 35.8882 32.6392C36.1791 32.6879 36.3731 32.6879 36.5186 32.6879C36.6641 32.6879 36.8581 32.6879 37.0521 32.6392C37.2946 32.6392 37.4401 32.5905 37.5856 32.5905C37.6826 32.5905 37.7796 32.5905 37.8766 32.5905C37.2946 32.8341 37.0521 33.0776 37.0521 33.3212C37.1006 34.4904 37.1491 35.3673 37.2461 36.0493C37.3916 37.5594 37.5371 38.6312 37.5856 39.2645C37.5856 39.508 37.7796 39.7029 38.1675 39.8491C38.313 39.8978 38.507 39.9465 38.701 39.9952C38.507 40.0439 38.216 40.0439 37.8281 39.9952C37.2461 39.9465 36.9551 39.9465 36.9066 39.9465C36.7611 39.9465 36.6156 39.9465 36.3731 39.9952C36.1306 40.0439 35.9851 40.0439 35.8397 40.0439C35.7427 40.0439 35.6457 40.0439 35.5002 40.0439C36.1306 39.8978 36.4701 39.6055 36.4216 39.2158C36.3731 37.9004 36.2761 36.8774 36.2276 36.1467C36.0821 34.9288 35.9851 34.1007 35.8882 33.5648C35.4032 34.5391 35.0152 35.2698 34.7242 35.8057C34.3847 36.4877 33.9483 37.4133 33.4633 38.6312C33.2693 39.1183 33.0268 39.6542 32.7843 40.1901C32.0568 38.485 31.4749 37.1697 31.0384 36.2441C30.4079 34.9288 29.923 34.0032 29.5835 33.4186C29.438 34.5878 29.341 35.5621 29.2925 36.2441C29.1955 37.6082 29.1955 38.6312 29.147 39.2158C29.147 39.5568 29.3895 39.8003 29.923 40.0439C29.341 40.0439 28.953 40.0439 28.8075 39.9952C28.7105 39.9952 28.6135 39.9952 28.4195 40.0439C28.274 40.0926 28.08 40.0926 27.7891 40.0926C28.2255 39.9465 28.468 39.6542 28.5165 39.3132C28.662 37.9979 28.8075 36.9749 28.9045 36.2441C29.05 35.3673 29.0985 34.393 29.05 33.3699C29.05 33.1264 28.759 32.8341 28.1285 32.5418C28.468 32.6392 28.856 32.6392 29.4865 32.6392Z" fill="url(#paint2_linear)"/>
<path d="M39.4285 33.2238C39.4285 32.9802 39.186 32.7853 38.6525 32.5905C39.186 32.6879 39.6225 32.6879 40.0104 32.6879L41.3199 32.5905C41.1259 32.6392 40.9804 32.6879 40.8349 32.7853C40.5439 32.9315 40.3984 33.0776 40.3984 33.2725C40.3984 33.8084 40.3499 34.734 40.3499 36.0006C40.3499 36.8287 40.3499 37.9979 40.3984 39.4106C40.3984 39.7516 40.6409 39.9952 41.0774 40.0926C40.8834 40.0926 40.6409 40.0926 40.3984 40.0926C40.1559 40.0926 39.9619 40.0439 39.8164 40.0926C39.7194 40.0926 39.5255 40.0926 39.283 40.1413C39.1375 40.1413 38.895 40.1413 38.604 40.1413C38.7495 40.0926 38.895 40.0439 38.992 39.9952C39.2345 39.8491 39.38 39.6542 39.38 39.4593C39.4285 37.9492 39.4285 36.78 39.4285 35.9518C39.5255 35.2698 39.477 34.3929 39.4285 33.2238Z" fill="url(#paint3_linear)"/>
<path d="M46.6063 32.3956C46.6063 32.5418 46.6548 32.7366 46.6548 32.9315C46.6548 33.6622 46.5093 34.2955 46.2668 34.8314C46.3153 34.6365 46.3153 34.4417 46.3153 34.2468C46.3153 33.7109 46.1698 33.2725 45.9274 33.0289C45.7334 32.8341 45.3454 32.6879 44.8604 32.6879C44.6664 32.6879 44.4724 32.6879 44.2784 32.7366C44.0359 32.7854 43.7935 32.9315 43.5995 33.2238C43.4055 33.5161 43.3085 33.7597 43.3085 34.0519C43.3085 34.2955 43.4055 34.4904 43.551 34.6852C43.7935 34.9288 44.3269 35.3185 45.1029 35.8057C45.9759 36.3416 46.5093 36.6826 46.7518 36.9261C47.1398 37.2184 47.2853 37.6082 47.2853 38.0953C47.2853 38.3876 47.1883 38.7286 47.0428 39.0209C46.9458 39.2645 46.8003 39.4593 46.7033 39.5568C46.2183 40.0439 45.4909 40.2875 44.6179 40.2875C44.0844 40.2875 43.551 40.1901 42.9205 39.9952C42.872 39.9952 42.8235 39.9952 42.775 39.9952C42.581 39.9952 42.4355 40.0926 42.3385 40.3362C42.3385 40.0926 42.29 39.8003 42.2415 39.4593C42.193 39.1183 42.1445 38.8748 42.1445 38.7286C42.1445 38.3389 42.193 37.9492 42.3385 37.6569C42.3385 37.9005 42.387 38.0953 42.4355 38.2902C42.581 38.7773 42.872 39.2158 43.3085 39.5568C43.648 39.8003 44.0359 39.9465 44.4724 39.9465C44.9089 39.9465 45.2969 39.8491 45.6364 39.6055C45.9759 39.3619 46.2183 39.0209 46.3153 38.5825C46.3153 38.485 46.3638 38.3876 46.3638 38.2902C46.3638 37.9979 46.1698 37.6569 45.7819 37.3159C45.6849 37.2184 45.3454 37.0236 44.8604 36.7313C44.2299 36.3903 43.7935 36.1467 43.5025 35.9518C43.0175 35.6108 42.678 35.3185 42.484 35.0263C42.3385 34.7827 42.29 34.4904 42.29 34.2468C42.29 33.9545 42.387 33.6622 42.581 33.3699C42.6295 33.2725 42.775 33.1264 42.969 32.9315C43.357 32.5905 43.9389 32.3956 44.7634 32.3956C45.0544 32.3956 45.3454 32.3956 45.6849 32.4443C45.7334 32.4443 45.8304 32.4931 45.9759 32.5418C46.0728 32.6392 46.1213 32.6392 46.2183 32.6392C46.3638 32.6392 46.4608 32.5905 46.6063 32.3956Z" fill="url(#paint4_linear)"/>
<path d="M52.1349 32.3956C52.1349 32.5418 52.1834 32.7366 52.1834 32.9315C52.1834 33.6622 52.0379 34.2955 51.7954 34.8314C51.8439 34.6365 51.8439 34.4417 51.8439 34.2468C51.8439 33.7109 51.6984 33.2725 51.4559 33.0289C51.2619 32.8341 50.8739 32.6879 50.389 32.6879C50.195 32.6879 50.001 32.6879 49.807 32.7366C49.5645 32.7854 49.322 32.9315 49.128 33.2238C48.934 33.5161 48.837 33.7597 48.837 34.0519C48.837 34.2955 48.934 34.4904 49.0795 34.6852C49.322 34.9288 49.8555 35.3185 50.6314 35.8057C51.5044 36.3416 52.0379 36.6826 52.2804 36.9261C52.6683 37.2184 52.8138 37.6082 52.8138 38.0953C52.8138 38.3876 52.7168 38.7286 52.5713 39.0209C52.4744 39.2645 52.3289 39.4593 52.2319 39.5568C51.7469 40.0439 51.0194 40.2875 50.1465 40.2875C49.613 40.2875 49.0795 40.1901 48.4491 39.9952C48.4006 39.9952 48.3521 39.9952 48.3036 39.9952C48.1096 39.9952 47.9641 40.0926 47.8671 40.3362C47.8671 40.0926 47.8186 39.8003 47.7701 39.4593C47.7216 39.1183 47.6731 38.8748 47.6731 38.7286C47.6731 38.3389 47.7216 37.9492 47.8671 37.6569C47.8671 37.9005 47.9156 38.0953 47.9641 38.2902C48.1096 38.7773 48.4006 39.2158 48.837 39.5568C49.1765 39.8003 49.5645 39.9465 50.001 39.9465C50.4375 39.9465 50.8254 39.8491 51.1649 39.6055C51.5044 39.3619 51.7469 39.0209 51.8439 38.5825C51.8439 38.485 51.8924 38.3876 51.8924 38.2902C51.8924 37.9979 51.6984 37.6569 51.3104 37.3159C51.2134 37.2184 50.8739 37.0236 50.389 36.7313C49.7585 36.3903 49.322 36.1467 49.031 35.9518C48.546 35.6108 48.2066 35.3185 48.0126 35.0263C47.8671 34.7827 47.8186 34.4904 47.8186 34.2468C47.8186 33.9545 47.9156 33.6622 48.1096 33.3699C48.1581 33.2725 48.3036 33.1264 48.4976 32.9315C48.8855 32.5905 49.4675 32.3956 50.292 32.3956C50.5829 32.3956 50.8739 32.3956 51.2134 32.4443C51.2619 32.4443 51.3589 32.4931 51.5044 32.5418C51.6499 32.5905 51.6984 32.5905 51.7954 32.5905C51.8924 32.6392 51.9894 32.5905 52.1349 32.3956Z" fill="url(#paint5_linear)"/>
<path d="M4.17081 43.8924C3.58884 43.8437 2.90988 43.8924 2.18241 43.8924C1.64894 43.8924 1.30945 44.2822 1.11546 44.9642C1.11546 44.818 1.11546 44.6232 1.11546 44.477C1.11546 43.9411 1.06697 43.5514 0.969971 43.2104C1.11546 43.2591 1.35795 43.3079 1.69744 43.3566C2.71589 43.4053 3.68584 43.4053 4.65579 43.4053C5.48025 43.4053 6.4017 43.4053 7.42015 43.3566C7.66264 43.3566 8.00213 43.3078 8.39011 43.2104C8.29311 43.5514 8.24461 43.9899 8.24461 44.5257C8.24461 44.6719 8.24461 44.818 8.24461 44.9642C8.19612 44.7693 8.09912 44.5744 8.00213 44.4283C7.75964 44.0873 7.42015 43.8924 7.03217 43.8924C6.25621 43.8437 5.62574 43.8437 5.18926 43.8437C5.14077 45.1103 5.14077 46.1333 5.14077 46.8641C5.14077 47.6922 5.14077 48.7639 5.18926 50.0793C5.18926 50.4203 5.43175 50.6638 5.91673 50.81C5.72274 50.81 5.48025 50.81 5.23776 50.7613C4.99527 50.7126 4.80128 50.7126 4.65579 50.7126C4.55879 50.7126 4.3648 50.7613 4.07382 50.7613C3.87983 50.7613 3.63734 50.7613 3.34635 50.7613C3.49185 50.7126 3.63734 50.6638 3.73433 50.6151C4.02532 50.469 4.12232 50.2741 4.12232 50.0793C4.17081 48.6665 4.17081 47.5948 4.17081 46.7666C4.21931 46.2308 4.21931 45.2565 4.17081 43.8924Z" fill="url(#paint6_linear)"/>
<path d="M18.2837 47.1563C18.2837 48.2281 17.8472 49.1537 16.9258 49.9331C16.0043 50.7126 14.9374 51.1023 13.6279 51.1023C12.3185 51.1023 11.2516 50.7126 10.3301 49.9331C9.40865 49.1537 8.97217 48.2281 8.97217 47.1563C8.97217 46.0846 9.40865 45.159 10.3301 44.3796C11.2516 43.6001 12.3185 43.2104 13.6279 43.2104C14.8889 43.2104 16.0043 43.6001 16.9258 44.3796C17.8472 45.1103 18.2837 46.0846 18.2837 47.1563ZM16.9743 46.4743C16.7318 45.6462 16.2953 44.9642 15.5678 44.4283C14.8889 43.8924 14.1129 43.6489 13.24 43.6489C12.9975 43.6489 12.8035 43.6489 12.561 43.6976C11.785 43.8437 11.1546 44.2334 10.6696 44.818C10.1846 45.4026 9.94212 46.0846 9.94212 46.8641C9.94212 47.2051 9.99062 47.4974 10.0876 47.7896C10.3301 48.6178 10.7666 49.2998 11.494 49.8357C12.2215 50.3715 12.949 50.6151 13.8219 50.6151C14.0644 50.6151 14.2584 50.6151 14.5009 50.5664C15.2769 50.4203 15.9073 50.0305 16.3923 49.446C16.8773 48.8614 17.1198 48.1794 17.1198 47.3999C17.1198 47.1076 17.0713 46.8153 16.9743 46.4743Z" fill="url(#paint7_linear)"/>
<path d="M18.5261 43.3566C18.7201 43.3566 18.9141 43.3566 19.1566 43.3566C19.4476 43.4053 19.6901 43.4053 19.8356 43.4053C20.0295 43.4053 20.272 43.4053 20.66 43.3566C20.9995 43.3566 21.1935 43.3566 21.339 43.3566C21.1935 43.4053 21.048 43.5027 20.9025 43.5514C20.6115 43.6976 20.466 43.8924 20.466 44.0873C20.4175 45.0129 20.369 45.7436 20.369 46.2795C20.369 46.8641 20.4175 47.5948 20.466 48.5204C20.466 49.2024 20.7085 49.6895 21.145 50.128C21.63 50.5664 22.2604 50.7613 23.1334 50.7613C23.9094 50.7613 24.5398 50.5664 24.9763 50.128C25.3643 49.7383 25.6068 49.2511 25.6068 48.6178C25.6553 47.6435 25.6553 46.8641 25.6553 46.3282C25.6553 45.7923 25.6068 45.0616 25.5583 44.136C25.5583 43.8924 25.2673 43.6489 24.7823 43.4053C25.0248 43.4053 25.4613 43.454 26.0433 43.454C26.2372 43.454 26.4797 43.4053 26.7707 43.4053C27.0617 43.3566 27.2557 43.3566 27.3527 43.3566C27.2072 43.454 27.1102 43.5027 27.0132 43.6001C26.7707 43.795 26.6737 43.9411 26.6737 44.136L26.6252 47.9845C26.6252 50.0305 25.3643 51.0536 22.8909 51.1023C21.6785 51.151 20.757 50.7613 20.175 50.0793C19.7871 49.5921 19.5931 49.105 19.5931 48.6178C19.5931 47.5461 19.5931 46.7179 19.5446 46.2308C19.5446 45.7436 19.4961 45.0129 19.4476 44.136C19.3506 43.8437 19.0596 43.6001 18.5261 43.3566Z" fill="url(#paint8_linear)"/>
<path d="M28.6137 43.5027C28.9046 43.5027 29.2441 43.5027 29.6321 43.454C30.0686 43.4053 30.3111 43.4053 30.4081 43.4053C30.4081 43.4053 30.4566 43.4053 30.5536 43.4053C30.6506 43.4053 30.7476 43.4053 30.7961 43.4053C32.0085 43.4053 32.736 43.8924 33.0269 44.8667C33.0754 45.0129 33.0754 45.159 33.0754 45.3539C33.0754 45.841 32.833 46.2308 32.3965 46.5718C32.057 46.8153 31.766 46.9615 31.5235 47.0102C32.833 49.2998 33.8514 50.81 34.4819 51.4433C35.5003 52.515 36.5673 53.0996 37.6827 53.0996C37.7797 53.0996 37.8767 53.0996 37.9737 53.0996C37.7797 53.197 37.4402 53.2458 37.0522 53.2458C36.4218 53.2458 35.7913 53.0996 35.1608 52.856C34.4334 52.5637 33.8514 52.1253 33.5119 51.5894C32.348 49.8844 31.572 48.764 31.281 48.2281C30.8446 47.4974 30.4566 47.1076 30.1656 47.1076H29.3896L29.4381 50.0793C29.4381 50.3228 29.5836 50.5177 29.7776 50.6638C29.8746 50.7126 29.9716 50.7613 30.1171 50.81C29.5351 50.81 29.0986 50.81 28.7592 50.81C28.6622 50.81 28.4682 50.81 28.1772 50.8587C27.9832 50.9074 27.7407 50.9074 27.5952 50.8587C28.0802 50.6638 28.3712 50.4203 28.3712 50.128C28.4197 48.7152 28.4682 47.5948 28.4682 46.7666C28.4197 45.5487 28.4197 44.6719 28.3712 44.136C28.3712 43.9899 28.2257 43.795 27.9832 43.6488C27.8862 43.5514 27.7407 43.5027 27.5952 43.4053C27.9832 43.5027 28.3712 43.5027 28.6137 43.5027ZM30.5051 46.8153C30.99 46.7666 31.378 46.5718 31.669 46.2795C31.96 45.9872 32.1055 45.6462 32.057 45.2077C32.0085 44.7206 31.766 44.3309 31.2325 44.0386C30.9416 43.8924 30.6021 43.795 30.3111 43.7463C29.6321 43.6976 29.2926 43.7463 29.2926 43.9411C29.2441 45.3539 29.2441 46.3282 29.2926 46.7666C29.9716 46.8153 30.3596 46.8153 30.5051 46.8153Z" fill="url(#paint9_linear)"/>
<path d="M34.7727 43.9899C34.7727 43.7463 34.5302 43.5514 33.9967 43.3566C34.5302 43.454 34.9667 43.454 35.3547 43.454L36.6641 43.3566C36.4701 43.4053 36.3246 43.454 36.1791 43.5514C35.8881 43.6976 35.7427 43.8437 35.7427 44.0386C35.7427 44.5744 35.6942 45.5 35.6942 46.7666C35.6942 47.5948 35.6942 48.7639 35.7427 50.1767C35.7427 50.5177 35.9851 50.7613 36.4216 50.8587C36.2276 50.8587 35.9851 50.8587 35.7427 50.8587C35.5002 50.8587 35.3062 50.81 35.1607 50.8587C35.0637 50.8587 34.8697 50.8587 34.6272 50.9074C34.4817 50.9074 34.2392 50.9074 33.9482 50.9074C34.0937 50.8587 34.2392 50.81 34.3362 50.7613C34.5787 50.6151 34.7242 50.4203 34.7242 50.2254C34.7727 48.7152 34.7727 47.5461 34.7727 46.7179C34.8212 46.0359 34.8212 45.159 34.7727 43.9899Z" fill="url(#paint10_linear)"/>
<path d="M41.9505 43.1617C41.9505 43.3078 41.999 43.5027 41.999 43.6975C41.999 44.4283 41.8536 45.0616 41.6111 45.5974C41.6596 45.4026 41.6596 45.2077 41.6596 45.0129C41.6596 44.477 41.5141 44.0386 41.2716 43.795C41.0776 43.6001 40.6896 43.454 40.2046 43.454C40.0106 43.454 39.8167 43.454 39.6227 43.5027C39.3802 43.5514 39.1377 43.6976 38.9437 43.9898C38.7497 44.2821 38.6527 44.5257 38.6527 44.818C38.6527 45.0616 38.7497 45.2564 38.8952 45.4513C39.1377 45.6949 39.6712 46.0846 40.4471 46.5717C41.3201 47.1076 41.8536 47.4486 42.096 47.6922C42.484 47.9845 42.6295 48.3742 42.6295 48.8614C42.6295 49.1537 42.5325 49.4947 42.387 49.7869C42.29 50.0305 42.1445 50.2254 42.0475 50.3228C41.5626 50.81 40.8351 51.0535 39.9621 51.0535C39.4287 51.0535 38.8952 50.9561 38.2647 50.7613C38.2162 50.7613 38.1677 50.7613 38.1192 50.7613C37.9252 50.7613 37.7798 50.8587 37.6828 51.1023C37.6828 50.8587 37.6343 50.5664 37.5858 50.2254C37.5373 49.8844 37.4888 49.6408 37.4888 49.4947C37.4888 49.1049 37.5373 48.7152 37.6828 48.4229C37.6828 48.6665 37.7313 48.8614 37.7798 49.0562C37.9252 49.5434 38.2162 49.9818 38.6527 50.3228C38.9922 50.5664 39.3802 50.7125 39.8167 50.7125C40.2531 50.7125 40.6411 50.6151 40.9806 50.3715C41.3201 50.128 41.5626 49.787 41.6596 49.3485C41.6596 49.2511 41.7081 49.1537 41.7081 49.0562C41.7081 48.7639 41.5141 48.4229 41.1261 48.0819C41.0291 47.9845 40.6896 47.7896 40.2046 47.4973C39.5742 47.1563 39.1377 46.9128 38.8467 46.7179C38.3617 46.3769 38.0222 46.0846 37.8283 45.7923C37.6828 45.5487 37.6343 45.2564 37.6343 45.0129C37.6343 44.7206 37.7313 44.4283 37.9252 44.136C37.9737 44.0386 38.1192 43.8924 38.3132 43.6975C38.7012 43.3565 39.2832 43.1617 40.1076 43.1617C40.3986 43.1617 40.6896 43.1617 41.0291 43.2104C41.0776 43.2104 41.1746 43.2591 41.3201 43.3078C41.4656 43.3565 41.5141 43.3565 41.6111 43.3565C41.6596 43.4053 41.8051 43.3078 41.9505 43.1617Z" fill="url(#paint11_linear)"/>
<path d="M44.0844 43.4053C44.4239 43.4053 44.7633 43.4053 45.0543 43.4053C45.6363 44.7693 46.1213 45.841 46.4608 46.6205C47.0427 47.8383 47.4792 48.7639 47.7217 49.2998C48.3522 48.0819 48.7887 47.1076 49.1281 46.4743C49.7586 45.0616 50.2436 44.0386 50.4861 43.4053C50.7771 43.454 50.9711 43.454 51.1165 43.454C51.262 43.454 51.456 43.454 51.65 43.4053C51.8925 43.4053 52.038 43.3565 52.1835 43.3565C52.2805 43.3565 52.3775 43.3565 52.4745 43.3565C51.8925 43.6001 51.65 43.8437 51.65 44.0873C51.6985 45.2564 51.747 46.1333 51.844 46.8153C51.9895 48.3255 52.135 49.3972 52.1835 50.0305C52.1835 50.2741 52.3775 50.469 52.7655 50.6151C52.911 50.6638 53.105 50.7125 53.2989 50.7613C53.105 50.81 52.814 50.81 52.426 50.7613C51.844 50.7125 51.553 50.7125 51.5045 50.7125C51.359 50.7125 51.2135 50.7125 50.9711 50.7613C50.7286 50.81 50.5831 50.81 50.4376 50.81C50.3406 50.81 50.2436 50.81 50.0981 50.81C50.7286 50.6638 51.068 50.3715 51.0195 49.9818C50.9711 48.6665 50.8741 47.6435 50.8256 46.9128C50.6801 45.6949 50.5831 44.8667 50.4861 44.3308C50.0011 45.3052 49.6131 46.0359 49.3221 46.5717C48.9826 47.2538 48.5462 48.1794 48.0612 49.3972C47.8672 49.8844 47.6247 50.4202 47.3822 50.9561C46.6548 49.2511 46.0728 47.9358 45.6363 47.0102C45.0058 45.6949 44.5209 44.7693 44.1814 44.1847C44.0359 45.3539 43.9389 46.3282 43.8904 47.0102C43.7934 48.3742 43.7934 49.3972 43.7449 49.9818C43.7449 50.3228 43.9874 50.5664 44.5209 50.81C43.9389 50.81 43.5509 50.81 43.4054 50.7613C43.3084 50.7613 43.2114 50.7613 43.0174 50.81C42.8719 50.8587 42.6779 50.8587 42.387 50.8587C42.8234 50.7125 43.0659 50.4203 43.1144 50.0792C43.2599 48.7639 43.4054 47.7409 43.5024 47.0102C43.6479 46.1333 43.6964 45.159 43.6479 44.136C43.6479 43.8924 43.3569 43.6001 42.7264 43.3078C43.0659 43.3565 43.4054 43.4053 44.0844 43.4053Z" fill="url(#paint12_linear)"/>
<path d="M1.45493 54.1713C1.60042 54.1713 1.84291 54.1713 2.0854 54.1226C2.37638 54.1226 2.52188 54.0739 2.61887 54.0739C2.71587 54.0739 2.76437 54.0739 2.81286 54.0739C2.37638 54.2688 2.1339 54.5123 2.1339 54.8046C2.1339 54.8534 2.1339 54.9021 2.18239 54.9508C2.47338 55.8277 2.66737 56.5097 2.86136 56.9968C3.34634 58.3608 3.68582 59.3351 3.92831 59.9197C4.41328 58.7018 4.80127 57.7275 4.99526 56.9968C5.33474 55.9738 5.52873 55.2431 5.67422 54.8046C5.67422 54.7559 5.72272 54.7072 5.72272 54.6585C5.72272 54.4149 5.52873 54.2201 5.09225 54.1226C5.57723 54.1226 5.96521 54.1226 6.2077 54.1226C6.30469 54.1226 6.45018 54.1226 6.74117 54.0739C6.93516 54.0739 7.08065 54.0739 7.17765 54.0739C6.78967 54.3175 6.49868 54.5124 6.45019 54.7072C6.01371 55.6815 5.67422 56.461 5.48023 57.0455C4.65577 59.2864 4.0738 60.9427 3.73432 61.917C3.00685 60.0172 2.42488 58.4583 1.93991 57.3378C1.40643 56.1199 1.01845 55.2431 0.775962 54.7072C0.727464 54.5611 0.581972 54.4636 0.339483 54.3175C0.242488 54.2688 0.0969953 54.2201 0 54.1713C0.436479 54.1713 0.969953 54.1713 1.45493 54.1713Z" fill="url(#paint13_linear)"/>
<path d="M8.58423 54.7559C8.58423 54.5123 8.34174 54.3175 7.80826 54.1226C8.34174 54.22 8.77822 54.2201 9.1662 54.2201L10.4756 54.1226C10.2816 54.1713 10.1361 54.2201 9.99066 54.3175C9.69967 54.4636 9.55418 54.6098 9.55418 54.8046C9.55418 55.3405 9.50568 56.2661 9.50568 57.5327C9.50568 58.3608 9.50568 59.53 9.55418 60.9427C9.55418 61.2837 9.79667 61.5273 10.2331 61.6247C10.0392 61.6247 9.79667 61.6247 9.55418 61.6247C9.31169 61.6247 9.1177 61.576 8.97221 61.6247C8.87521 61.6247 8.68122 61.6247 8.43873 61.6735C8.29324 61.6735 8.05075 61.6735 7.75977 61.6735C7.90526 61.6247 8.05075 61.576 8.14775 61.5273C8.39023 61.3812 8.53573 61.1863 8.53573 60.9914C8.58423 59.4813 8.58423 58.3121 8.58423 57.484C8.63272 56.802 8.63272 55.9251 8.58423 54.7559Z" fill="url(#paint14_linear)"/>
<path d="M12.5123 54.2201C12.6578 54.2201 12.8518 54.2201 13.0943 54.2201C13.9672 54.2201 15.2282 54.1713 16.8771 54.0739C17.0226 54.5611 17.1196 54.9995 17.1196 55.3405C17.1196 55.4867 17.1196 55.6328 17.0711 55.7302C17.0226 55.2431 16.7801 54.9508 16.2951 54.7559C15.7132 54.5611 14.9372 54.4636 13.9187 54.5611C13.5793 54.6098 13.3368 54.6585 13.1913 54.8046C13.0943 54.9021 13.0458 55.0482 12.9973 55.3405C12.9003 55.8277 12.9003 56.6071 12.9488 57.6301C13.1428 57.6301 13.3368 57.6788 13.5308 57.6788C13.9187 57.6788 14.3552 57.6788 14.7917 57.5814C15.0342 57.5814 15.2767 57.3865 15.5192 57.0942C15.6162 56.9481 15.7132 56.802 15.8102 56.6071C15.8102 56.7532 15.7617 56.9481 15.7132 57.143C15.6647 57.3378 15.6162 57.5327 15.6162 57.6788C15.6162 57.825 15.6162 57.9711 15.6162 58.166C15.6647 58.3608 15.6647 58.5557 15.6162 58.7506C15.4222 58.2634 15.0827 57.9711 14.6462 57.9711C13.9187 57.9224 13.3368 57.9224 12.9488 57.9711C12.9488 59.0916 12.9488 60.0172 12.9973 60.6505C12.9973 60.8453 13.1913 61.0402 13.5308 61.1863C13.6278 61.235 13.8218 61.2838 14.1127 61.2838C14.5492 61.2838 15.0342 61.235 15.5677 61.1376C16.1981 60.9915 16.6831 60.6992 17.0711 60.2607C17.2166 60.0659 17.3621 59.8223 17.4591 59.5787C17.3136 60.553 17.0711 61.235 16.7316 61.6248C15.6162 61.576 14.7432 61.5273 14.1127 61.5273C13.3368 61.576 12.8033 61.576 12.4638 61.6248C11.8818 61.6735 11.4454 61.6735 11.2029 61.6735C11.7849 61.4786 12.0758 61.1863 12.0758 60.8453C12.1243 59.3839 12.1243 58.2634 12.1243 57.4353C12.1243 56.2661 12.0758 55.4379 12.0758 54.9508C12.0758 54.7559 11.9303 54.5611 11.6394 54.4149C11.5424 54.3662 11.3969 54.2688 11.2029 54.2201C11.7364 54.1713 12.1728 54.1713 12.5123 54.2201Z" fill="url(#paint15_linear)"/>
<path d="M21.0963 54.6585C20.5144 54.6098 19.8354 54.6585 19.1079 54.6585C18.5745 54.6585 18.235 55.0482 18.041 55.7302C18.041 55.5841 18.041 55.3892 18.041 55.2431C18.041 54.7072 17.9925 54.3175 17.8955 53.9765C18.041 54.0252 18.2835 54.0739 18.623 54.1226C19.6414 54.1713 20.6114 54.1713 21.5813 54.1713C22.4058 54.1713 23.3272 54.1713 24.3457 54.1226C24.5882 54.1226 24.9277 54.0739 25.3156 53.9765C25.2186 54.3175 25.1702 54.7559 25.1702 55.2918C25.1702 55.4379 25.1702 55.5841 25.1702 55.7302C25.1217 55.5354 25.0247 55.3405 24.9277 55.1944C24.6852 54.8533 24.3457 54.6585 23.9577 54.6585C23.1817 54.6098 22.5513 54.6098 22.1148 54.6098C22.0663 55.8764 22.0663 56.8994 22.0663 57.6301C22.0663 58.4583 22.0663 59.53 22.1148 60.8453C22.1148 61.1863 22.3573 61.4299 22.8423 61.576C22.6483 61.576 22.4058 61.576 22.1633 61.5273C21.9208 61.4786 21.7268 61.4786 21.5813 61.4786C21.4843 61.4786 21.2903 61.5273 20.9994 61.5273C20.8054 61.5273 20.5629 61.5273 20.2719 61.5273C20.4174 61.4786 20.5629 61.4299 20.6599 61.3812C20.9509 61.235 21.0479 61.0402 21.0479 60.8453C21.0964 59.4326 21.0963 58.3608 21.0963 57.5327C21.1448 56.9968 21.0963 55.9738 21.0963 54.6585Z" fill="url(#paint16_linear)"/>
<path d="M26.4312 54.1226C26.7222 54.1226 26.8676 54.1713 26.9646 54.1713C27.1101 54.1713 27.2556 54.1713 27.4011 54.1226C28.6621 55.3892 29.6805 56.3635 30.4565 57.0942C31.9599 58.4583 33.0268 59.4326 33.7058 60.0172C33.7543 59.3839 33.7543 58.7506 33.7543 58.1173C33.7543 56.8994 33.7058 55.8276 33.6088 54.8533C33.6088 54.6585 33.4633 54.4636 33.1238 54.3175C32.9783 54.2688 32.8329 54.22 32.6874 54.1226C32.9783 54.1226 33.2208 54.1226 33.4148 54.1226C33.6088 54.1226 33.7543 54.1226 33.8998 54.1226C34.3363 54.1226 34.7728 54.1226 35.1607 54.0739C34.5303 54.2688 34.2393 54.5123 34.2393 54.8533C34.1908 55.7789 34.1423 56.5097 34.1423 57.0455C34.1423 57.4353 34.1423 57.8737 34.1423 58.3608C34.1423 59.4326 34.1423 60.6017 34.1908 61.8683C32.4449 60.1633 31.0384 58.7993 29.9715 57.825C28.7106 56.7045 27.7891 55.8764 27.2071 55.3405C27.1586 56.0712 27.1101 56.802 27.1101 57.6301C27.1101 58.7019 27.1586 59.7249 27.2071 60.7479C27.2071 60.9915 27.4011 61.1863 27.7406 61.3325C27.8861 61.4299 28.0316 61.4786 28.2256 61.5273C28.1771 61.5273 28.0801 61.5273 27.9831 61.5273C27.8861 61.5273 27.6921 61.5273 27.4496 61.4786C27.2071 61.4299 26.9646 61.4299 26.8191 61.4299C26.7222 61.4299 26.5282 61.4299 26.2372 61.4786C26.0432 61.4786 25.8492 61.4786 25.7522 61.4786C26.3342 61.2838 26.6252 61.0402 26.6252 60.7966C26.6737 59.6274 26.7221 58.7018 26.7221 58.0198C26.7221 57.2891 26.7222 56.3148 26.6737 55.0482C26.6737 54.7559 26.5282 54.4636 26.2372 54.22C26.1402 54.1226 25.9947 54.0252 25.8007 53.9765C25.9947 54.1226 26.1887 54.1226 26.4312 54.1226Z" fill="url(#paint17_linear)"/>
<path d="M38.9921 53.7816C39.3316 54.5611 39.8651 55.8277 40.5925 57.6301C40.932 58.4096 41.4655 59.4813 42.096 60.8453C42.2414 61.1376 42.5809 61.4299 43.1144 61.6735C43.0174 61.6735 42.8234 61.6735 42.5809 61.6248C42.2899 61.576 41.999 61.576 41.7565 61.576C41.611 61.576 41.32 61.6248 40.835 61.6735C40.447 61.7222 40.2045 61.7222 40.1075 61.7222C40.641 61.5273 40.932 61.2838 40.932 61.0402C40.932 60.9915 40.932 60.9915 40.932 60.9427L40.2045 58.9454C39.6226 58.9454 39.0891 58.8967 38.7496 58.8967C38.4101 58.8967 37.9252 58.8967 37.3432 58.9454L36.4217 61.0402C36.4217 61.0889 36.4217 61.0889 36.4217 61.1376C36.4217 61.3325 36.6642 61.5273 37.1007 61.7709C36.8582 61.7709 36.5672 61.7709 36.2762 61.7709C35.9852 61.7222 35.8398 61.7222 35.8398 61.7222C35.8398 61.7222 35.5488 61.7222 34.9668 61.7709C35.1123 61.7222 35.2093 61.6248 35.3548 61.576C35.5973 61.4299 35.7913 61.235 35.8398 61.0889C36.1792 60.3582 36.7127 59.2377 37.4402 57.5814C37.7797 56.5584 38.3131 55.3405 38.9921 53.7816ZM39.9621 58.4096C39.6711 57.6301 39.2831 56.6558 38.7496 55.4379L37.4402 58.4096C37.6827 58.4096 38.0221 58.4583 38.6041 58.4583C38.9436 58.507 39.3801 58.4583 39.9621 58.4096Z" fill="url(#paint18_linear)"/>
<path d="M44.0844 54.1713C44.4239 54.1713 44.7633 54.1713 45.0543 54.1713C45.6363 55.5354 46.1213 56.6071 46.4608 57.3865C47.0427 58.6044 47.4792 59.53 47.7217 60.0659C48.3522 58.848 48.7887 57.8737 49.1281 57.2404C49.7586 55.8277 50.2436 54.8046 50.4861 54.1713C50.7771 54.2201 50.9711 54.2201 51.1165 54.2201C51.262 54.2201 51.456 54.2201 51.65 54.1713C51.8925 54.1713 52.038 54.1226 52.1835 54.1226C52.2805 54.1226 52.3775 54.1226 52.4745 54.1226C51.8925 54.3662 51.65 54.6098 51.65 54.8534C51.6985 56.0225 51.747 56.8994 51.844 57.5814C51.9895 59.0916 52.135 60.1633 52.1835 60.7966C52.1835 61.0402 52.3775 61.235 52.7655 61.3812C52.911 61.4299 53.105 61.4786 53.2989 61.5273C53.105 61.576 52.814 61.576 52.426 61.5273C51.844 61.4786 51.553 61.4786 51.5045 61.4786C51.359 61.4786 51.2135 61.4786 50.9711 61.5273C50.7286 61.576 50.5831 61.576 50.4376 61.576C50.3406 61.576 50.2436 61.576 50.0981 61.576C50.7286 61.4299 51.068 61.1376 51.0195 60.7479C50.9711 59.4326 50.8741 58.4096 50.8256 57.6788C50.6801 56.461 50.5831 55.6328 50.4861 55.0969C50.0011 56.0712 49.6131 56.802 49.3221 57.3378C48.9826 58.0198 48.5462 58.9454 48.0612 60.1633C47.8672 60.6505 47.6247 61.1863 47.3822 61.7222C46.6548 60.0172 46.0728 58.7019 45.6363 57.7763C45.0058 56.461 44.5209 55.5354 44.1814 54.9508C44.0359 56.12 43.9389 57.0943 43.8904 57.7763C43.7934 59.1403 43.7934 60.1633 43.7449 60.7479C43.7449 61.0889 43.9874 61.3325 44.5209 61.576C43.9389 61.576 43.5509 61.576 43.4054 61.5273C43.3084 61.5273 43.2114 61.5273 43.0174 61.576C42.8719 61.6248 42.6779 61.6248 42.387 61.6248C42.8234 61.4786 43.0659 61.1863 43.1144 60.8453C43.2599 59.53 43.4054 58.507 43.5024 57.7763C43.6479 56.8994 43.6964 55.9251 43.6479 54.9021C43.6479 54.6585 43.3569 54.3662 42.7264 54.0739C43.0659 54.1226 43.4054 54.1713 44.0844 54.1713Z" fill="url(#paint19_linear)"/>
<path d="M15.5193 70.3448C15.9558 70.0038 16.3437 69.6141 16.6832 69.3218C17.0227 68.9808 17.3622 68.6885 17.6047 68.3962C17.8472 68.1039 18.0412 67.8603 18.1867 67.6654C18.3321 67.4706 18.3806 67.2757 18.3806 67.1296C18.3806 66.9347 18.3321 66.7399 18.2352 66.6424C18.1382 66.545 17.9927 66.4963 17.7987 66.4963C17.6047 66.4963 17.4592 66.545 17.3622 66.6424C17.2652 66.7399 17.2167 66.886 17.2167 67.1296V67.5193H15.5678V65.5707C15.7133 65.522 15.8588 65.4245 16.0528 65.3758C16.1983 65.3271 16.4407 65.2784 16.6347 65.2297C16.8772 65.181 17.1197 65.1323 17.3622 65.0835C17.6047 65.0348 17.8957 65.0348 18.1382 65.0348C18.9141 65.0348 19.4961 65.181 19.8841 65.522C20.2721 65.8143 20.466 66.3014 20.466 66.9347C20.466 67.2757 20.369 67.568 20.2236 67.909C20.0781 68.2013 19.8841 68.4936 19.6416 68.7859C19.3991 69.0782 19.1566 69.3218 18.8656 69.5653C18.5746 69.8089 18.2837 70.0525 18.0412 70.2474H19.0596V69.7602H20.66V71.6114H15.5193V70.3448Z" fill="url(#paint20_linear)"/>
<path d="M31.5719 68.3962C31.5719 68.9807 31.5234 69.5166 31.3779 69.955C31.2324 70.3935 31.0384 70.7345 30.796 70.9781C30.5535 71.2216 30.2625 71.4165 29.8745 71.5626C29.535 71.6601 29.0985 71.7575 28.6621 71.7575C28.2256 71.7575 27.8376 71.7088 27.4496 71.5626C27.1101 71.4652 26.7706 71.2703 26.5282 70.9781C26.2857 70.7345 26.0917 70.3935 25.9462 69.955C25.8007 69.5166 25.7522 69.0294 25.7522 68.3962C25.7522 67.8116 25.8007 67.2757 25.9462 66.886C26.0917 66.4475 26.2857 66.1065 26.5282 65.863C26.7706 65.6194 27.0616 65.4245 27.4496 65.2784C27.7891 65.181 28.2256 65.0835 28.6621 65.0835C29.0985 65.0835 29.4865 65.1322 29.8745 65.2784C30.214 65.3758 30.5535 65.5707 30.796 65.863C31.0384 66.1065 31.2324 66.4475 31.3779 66.886C31.5234 67.2757 31.5719 67.7629 31.5719 68.3962ZM28.7106 70.2473C28.9045 70.2473 29.05 70.1986 29.147 70.1012C29.244 70.0037 29.2925 69.8576 29.2925 69.614V67.1296C29.2925 66.9347 29.244 66.7398 29.147 66.6424C29.05 66.545 28.9045 66.4963 28.7106 66.4963C28.5166 66.4963 28.3711 66.545 28.2741 66.6424C28.1771 66.7398 28.1286 66.886 28.1286 67.1296V69.614C28.1286 69.8089 28.1771 70.0037 28.2741 70.1012C28.3711 70.1986 28.5166 70.2473 28.7106 70.2473Z" fill="url(#paint21_linear)"/>
<path d="M36.7126 70.3448C37.1491 70.0038 37.5371 69.6141 37.8766 69.3218C38.2161 68.9808 38.5556 68.6885 38.798 68.3962C39.0405 68.1039 39.2345 67.8603 39.38 67.6654C39.5255 67.4706 39.574 67.2757 39.574 67.1296C39.574 66.9347 39.5255 66.7399 39.4285 66.6424C39.3315 66.545 39.186 66.4963 38.992 66.4963C38.798 66.4963 38.6526 66.545 38.5556 66.6424C38.4586 66.7399 38.4101 66.886 38.4101 67.1296V67.5193H36.8581V65.5707C37.0036 65.522 37.1491 65.4245 37.3431 65.3758C37.4886 65.3271 37.7311 65.2784 37.9251 65.2297C38.1676 65.181 38.4101 65.1323 38.6526 65.0835C38.895 65.0348 39.186 65.0348 39.4285 65.0348C40.2045 65.0348 40.7865 65.181 41.1744 65.522C41.5624 65.8143 41.7564 66.3014 41.7564 66.9347C41.7564 67.2757 41.6594 67.568 41.5139 67.909C41.3684 68.2013 41.1744 68.4936 40.9319 68.7859C40.6895 69.0782 40.447 69.3218 40.156 69.5653C39.865 69.8089 39.574 70.0525 39.3315 70.2474H40.35V69.7602H41.9504V71.6114H36.7126V70.3448Z" fill="url(#paint22_linear)"/>
<path d="M52.7655 68.3962C52.7655 68.9807 52.717 69.5166 52.5715 69.955C52.426 70.3935 52.232 70.7345 51.9895 70.9781C51.7471 71.2216 51.4561 71.4165 51.0681 71.5626C50.7286 71.6601 50.2921 71.7575 49.8557 71.7575C49.4192 71.7575 49.0312 71.7088 48.6432 71.5626C48.3037 71.4652 47.9642 71.2703 47.7218 70.9781C47.4793 70.7345 47.2853 70.3935 47.1398 69.955C46.9943 69.5166 46.9458 69.0294 46.9458 68.3962C46.9458 67.8116 46.9943 67.2757 47.1398 66.886C47.2853 66.4475 47.4793 66.1065 47.7218 65.863C47.9642 65.6194 48.2552 65.4245 48.6432 65.2784C48.9827 65.181 49.4192 65.0835 49.8557 65.0835C50.2921 65.0835 50.6801 65.1322 51.0681 65.2784C51.4076 65.3758 51.7471 65.5707 51.9895 65.863C52.232 66.1065 52.426 66.4475 52.5715 66.886C52.717 67.2757 52.7655 67.7629 52.7655 68.3962ZM49.9042 70.2473C50.0981 70.2473 50.2436 70.1986 50.3406 70.1012C50.4376 70.0037 50.4861 69.8576 50.4861 69.614V67.1296C50.4861 66.9347 50.4376 66.7398 50.3406 66.6424C50.2436 66.545 50.0981 66.4963 49.9042 66.4963C49.7102 66.4963 49.5647 66.545 49.4677 66.6424C49.3707 66.7398 49.3222 66.886 49.3222 67.1296V69.614C49.3222 69.8089 49.3707 70.0037 49.4677 70.1012C49.5647 70.1986 49.7102 70.2473 49.9042 70.2473Z" fill="url(#paint23_linear)"/>
<path d="M15.5193 70.3448C15.9558 70.0038 16.3437 69.6141 16.6832 69.3218C17.0227 68.9808 17.3622 68.6885 17.6047 68.3962C17.8472 68.1039 18.0412 67.8603 18.1867 67.6654C18.3321 67.4706 18.3806 67.2757 18.3806 67.1296C18.3806 66.9347 18.3321 66.7399 18.2352 66.6424C18.1382 66.545 17.9927 66.4963 17.7987 66.4963C17.6047 66.4963 17.4592 66.545 17.3622 66.6424C17.2652 66.7399 17.2167 66.886 17.2167 67.1296V67.5193H15.5678V65.5707C15.7133 65.522 15.8588 65.4245 16.0528 65.3758C16.1983 65.3271 16.4407 65.2784 16.6347 65.2297C16.8772 65.181 17.1197 65.1323 17.3622 65.0835C17.6047 65.0348 17.8957 65.0348 18.1382 65.0348C18.9141 65.0348 19.4961 65.181 19.8841 65.522C20.2721 65.8143 20.466 66.3014 20.466 66.9347C20.466 67.2757 20.369 67.568 20.2236 67.909C20.0781 68.2013 19.8841 68.4936 19.6416 68.7859C19.3991 69.0782 19.1566 69.3218 18.8656 69.5653C18.5746 69.8089 18.2837 70.0525 18.0412 70.2474H19.0596V69.7602H20.66V71.6114H15.5193V70.3448Z" fill="url(#paint24_linear)"/>
<path d="M31.5719 68.3962C31.5719 68.9807 31.5234 69.5166 31.3779 69.955C31.2324 70.3935 31.0384 70.7345 30.796 70.9781C30.5535 71.2216 30.2625 71.4165 29.8745 71.5626C29.535 71.6601 29.0985 71.7575 28.6621 71.7575C28.2256 71.7575 27.8376 71.7088 27.4496 71.5626C27.1101 71.4652 26.7706 71.2703 26.5282 70.9781C26.2857 70.7345 26.0917 70.3935 25.9462 69.955C25.8007 69.5166 25.7522 69.0294 25.7522 68.3962C25.7522 67.8116 25.8007 67.2757 25.9462 66.886C26.0917 66.4475 26.2857 66.1065 26.5282 65.863C26.7706 65.6194 27.0616 65.4245 27.4496 65.2784C27.7891 65.181 28.2256 65.0835 28.6621 65.0835C29.0985 65.0835 29.4865 65.1322 29.8745 65.2784C30.214 65.3758 30.5535 65.5707 30.796 65.863C31.0384 66.1065 31.2324 66.4475 31.3779 66.886C31.5234 67.2757 31.5719 67.7629 31.5719 68.3962ZM28.7106 70.2473C28.9045 70.2473 29.05 70.1986 29.147 70.1012C29.244 70.0037 29.2925 69.8576 29.2925 69.614V67.1296C29.2925 66.9347 29.244 66.7398 29.147 66.6424C29.05 66.545 28.9045 66.4963 28.7106 66.4963C28.5166 66.4963 28.3711 66.545 28.2741 66.6424C28.1771 66.7398 28.1286 66.886 28.1286 67.1296V69.614C28.1286 69.8089 28.1771 70.0037 28.2741 70.1012C28.3711 70.1986 28.5166 70.2473 28.7106 70.2473Z" fill="url(#paint25_linear)"/>
<path d="M36.7126 70.3448C37.1491 70.0038 37.5371 69.6141 37.8766 69.3218C38.2161 68.9808 38.5556 68.6885 38.798 68.3962C39.0405 68.1039 39.2345 67.8603 39.38 67.6654C39.5255 67.4706 39.574 67.2757 39.574 67.1296C39.574 66.9347 39.5255 66.7399 39.4285 66.6424C39.3315 66.545 39.186 66.4963 38.992 66.4963C38.798 66.4963 38.6526 66.545 38.5556 66.6424C38.4586 66.7399 38.4101 66.886 38.4101 67.1296V67.5193H36.8581V65.5707C37.0036 65.522 37.1491 65.4245 37.3431 65.3758C37.4886 65.3271 37.7311 65.2784 37.9251 65.2297C38.1676 65.181 38.4101 65.1323 38.6526 65.0835C38.895 65.0348 39.186 65.0348 39.4285 65.0348C40.2045 65.0348 40.7865 65.181 41.1744 65.522C41.5624 65.8143 41.7564 66.3014 41.7564 66.9347C41.7564 67.2757 41.6594 67.568 41.5139 67.909C41.3684 68.2013 41.1744 68.4936 40.9319 68.7859C40.6895 69.0782 40.447 69.3218 40.156 69.5653C39.865 69.8089 39.574 70.0525 39.3315 70.2474H40.35V69.7602H41.9504V71.6114H36.7126V70.3448Z" fill="url(#paint26_linear)"/>
<path d="M52.7655 68.3962C52.7655 68.9807 52.717 69.5166 52.5715 69.955C52.426 70.3935 52.232 70.7345 51.9895 70.9781C51.7471 71.2216 51.4561 71.4165 51.0681 71.5626C50.7286 71.6601 50.2921 71.7575 49.8557 71.7575C49.4192 71.7575 49.0312 71.7088 48.6432 71.5626C48.3037 71.4652 47.9642 71.2703 47.7218 70.9781C47.4793 70.7345 47.2853 70.3935 47.1398 69.955C46.9943 69.5166 46.9458 69.0294 46.9458 68.3962C46.9458 67.8116 46.9943 67.2757 47.1398 66.886C47.2853 66.4475 47.4793 66.1065 47.7218 65.863C47.9642 65.6194 48.2552 65.4245 48.6432 65.2784C48.9827 65.181 49.4192 65.0835 49.8557 65.0835C50.2921 65.0835 50.6801 65.1322 51.0681 65.2784C51.4076 65.3758 51.7471 65.5707 51.9895 65.863C52.232 66.1065 52.426 66.4475 52.5715 66.886C52.717 67.2757 52.7655 67.7629 52.7655 68.3962ZM49.9042 70.2473C50.0981 70.2473 50.2436 70.1986 50.3406 70.1012C50.4376 70.0037 50.4861 69.8576 50.4861 69.614V67.1296C50.4861 66.9347 50.4376 66.7398 50.3406 66.6424C50.2436 66.545 50.0981 66.4963 49.9042 66.4963C49.7102 66.4963 49.5647 66.545 49.4677 66.6424C49.3707 66.7398 49.3222 66.886 49.3222 67.1296V69.614C49.3222 69.8089 49.3707 70.0037 49.4677 70.1012C49.5647 70.1986 49.7102 70.2473 49.9042 70.2473Z" fill="url(#paint27_linear)"/>
<path d="M15.5193 70.3448C15.9558 70.0038 16.3437 69.6141 16.6832 69.3218C17.0227 68.9808 17.3622 68.6885 17.6047 68.3962C17.8472 68.1039 18.0412 67.8603 18.1867 67.6654C18.3321 67.4706 18.3806 67.2757 18.3806 67.1296C18.3806 66.9347 18.3321 66.7399 18.2352 66.6424C18.1382 66.545 17.9927 66.4963 17.7987 66.4963C17.6047 66.4963 17.4592 66.545 17.3622 66.6424C17.2652 66.7399 17.2167 66.886 17.2167 67.1296V67.5193H15.5678V65.5707C15.7133 65.522 15.8588 65.4245 16.0528 65.3758C16.1983 65.3271 16.4407 65.2784 16.6347 65.2297C16.8772 65.181 17.1197 65.1323 17.3622 65.0835C17.6047 65.0348 17.8957 65.0348 18.1382 65.0348C18.9141 65.0348 19.4961 65.181 19.8841 65.522C20.2721 65.8143 20.466 66.3014 20.466 66.9347C20.466 67.2757 20.369 67.568 20.2236 67.909C20.0781 68.2013 19.8841 68.4936 19.6416 68.7859C19.3991 69.0782 19.1566 69.3218 18.8656 69.5653C18.5746 69.8089 18.2837 70.0525 18.0412 70.2474H19.0596V69.7602H20.66V71.6114H15.5193V70.3448Z" fill="url(#paint28_linear)"/>
<path d="M31.5719 68.3962C31.5719 68.9807 31.5234 69.5166 31.3779 69.955C31.2324 70.3935 31.0384 70.7345 30.796 70.9781C30.5535 71.2216 30.2625 71.4165 29.8745 71.5626C29.535 71.6601 29.0985 71.7575 28.6621 71.7575C28.2256 71.7575 27.8376 71.7088 27.4496 71.5626C27.1101 71.4652 26.7706 71.2703 26.5282 70.9781C26.2857 70.7345 26.0917 70.3935 25.9462 69.955C25.8007 69.5166 25.7522 69.0294 25.7522 68.3962C25.7522 67.8116 25.8007 67.2757 25.9462 66.886C26.0917 66.4475 26.2857 66.1065 26.5282 65.863C26.7706 65.6194 27.0616 65.4245 27.4496 65.2784C27.7891 65.181 28.2256 65.0835 28.6621 65.0835C29.0985 65.0835 29.4865 65.1322 29.8745 65.2784C30.214 65.3758 30.5535 65.5707 30.796 65.863C31.0384 66.1065 31.2324 66.4475 31.3779 66.886C31.5234 67.2757 31.5719 67.7629 31.5719 68.3962ZM28.7106 70.2473C28.9045 70.2473 29.05 70.1986 29.147 70.1012C29.244 70.0037 29.2925 69.8576 29.2925 69.614V67.1296C29.2925 66.9347 29.244 66.7398 29.147 66.6424C29.05 66.545 28.9045 66.4963 28.7106 66.4963C28.5166 66.4963 28.3711 66.545 28.2741 66.6424C28.1771 66.7398 28.1286 66.886 28.1286 67.1296V69.614C28.1286 69.8089 28.1771 70.0037 28.2741 70.1012C28.3711 70.1986 28.5166 70.2473 28.7106 70.2473Z" fill="url(#paint29_linear)"/>
<path d="M36.7126 70.3448C37.1491 70.0038 37.5371 69.6141 37.8766 69.3218C38.2161 68.9808 38.5556 68.6885 38.798 68.3962C39.0405 68.1039 39.2345 67.8603 39.38 67.6654C39.5255 67.4706 39.574 67.2757 39.574 67.1296C39.574 66.9347 39.5255 66.7399 39.4285 66.6424C39.3315 66.545 39.186 66.4963 38.992 66.4963C38.798 66.4963 38.6526 66.545 38.5556 66.6424C38.4586 66.7399 38.4101 66.886 38.4101 67.1296V67.5193H36.8581V65.5707C37.0036 65.522 37.1491 65.4245 37.3431 65.3758C37.4886 65.3271 37.7311 65.2784 37.9251 65.2297C38.1676 65.181 38.4101 65.1323 38.6526 65.0835C38.895 65.0348 39.186 65.0348 39.4285 65.0348C40.2045 65.0348 40.7865 65.181 41.1744 65.522C41.5624 65.8143 41.7564 66.3014 41.7564 66.9347C41.7564 67.2757 41.6594 67.568 41.5139 67.909C41.3684 68.2013 41.1744 68.4936 40.9319 68.7859C40.6895 69.0782 40.447 69.3218 40.156 69.5653C39.865 69.8089 39.574 70.0525 39.3315 70.2474H40.35V69.7602H41.9504V71.6114H36.7126V70.3448Z" fill="url(#paint30_linear)"/>
<path d="M52.7655 68.3962C52.7655 68.9807 52.717 69.5166 52.5715 69.955C52.426 70.3935 52.232 70.7345 51.9895 70.9781C51.7471 71.2216 51.4561 71.4165 51.0681 71.5626C50.7286 71.6601 50.2921 71.7575 49.8557 71.7575C49.4192 71.7575 49.0312 71.7088 48.6432 71.5626C48.3037 71.4652 47.9642 71.2703 47.7218 70.9781C47.4793 70.7345 47.2853 70.3935 47.1398 69.955C46.9943 69.5166 46.9458 69.0294 46.9458 68.3962C46.9458 67.8116 46.9943 67.2757 47.1398 66.886C47.2853 66.4475 47.4793 66.1065 47.7218 65.863C47.9642 65.6194 48.2552 65.4245 48.6432 65.2784C48.9827 65.181 49.4192 65.0835 49.8557 65.0835C50.2921 65.0835 50.6801 65.1322 51.0681 65.2784C51.4076 65.3758 51.7471 65.5707 51.9895 65.863C52.232 66.1065 52.426 66.4475 52.5715 66.886C52.717 67.2757 52.7655 67.7629 52.7655 68.3962ZM49.9042 70.2473C50.0981 70.2473 50.2436 70.1986 50.3406 70.1012C50.4376 70.0037 50.4861 69.8576 50.4861 69.614V67.1296C50.4861 66.9347 50.4376 66.7398 50.3406 66.6424C50.2436 66.545 50.0981 66.4963 49.9042 66.4963C49.7102 66.4963 49.5647 66.545 49.4677 66.6424C49.3707 66.7398 49.3222 66.886 49.3222 67.1296V69.614C49.3222 69.8089 49.3707 70.0037 49.4677 70.1012C49.5647 70.1986 49.7102 70.2473 49.9042 70.2473Z" fill="url(#paint31_linear)"/>
<path d="M76.9173 84.9593C77.3538 84.7157 80.4091 82.7184 82.349 80.2339C81.7671 76.629 79.8272 72.0498 77.0143 65.0835C72.019 52.856 74.2984 49.4459 75.6564 46.9127C76.9658 44.3796 75.6564 41.7976 75.6564 41.7976C79.6332 40.4823 83.125 37.0236 82.8825 36.2928C82.64 35.5621 76.8688 27.9138 75.0744 27.2318C73.3285 26.5498 72.8435 25.3806 72.8435 25.3806C74.7349 26.2088 75.8988 24.6012 75.5109 23.3346C75.1714 22.3116 74.4439 22.3116 74.4439 22.3116C75.4624 20.5578 74.6379 18.0733 72.6495 17.5375C72.698 17.0016 72.4555 16.417 72.4555 16.417C71.6795 16.5632 71.1461 17.099 71.1461 17.099C71.2431 16.2709 70.7581 15.4427 70.7581 15.4427C69.9821 16.076 69.8851 16.9042 69.8851 16.9042C69.7881 16.6119 69.5942 16.417 69.5942 16.417C69.2062 17.1478 69.3032 17.8785 69.3032 17.8785C69.2062 17.6836 68.9152 17.4888 68.9152 17.4888C68.8182 18.0733 69.0122 18.8041 69.0607 18.9502V18.9989C69.0607 18.9989 68.7697 19.3399 68.8182 19.8758C68.8667 20.4117 69.0122 20.8014 68.7697 21.0937C68.6242 21.2398 68.4787 21.386 68.3332 21.5321C68.2362 20.8501 68.1392 20.1681 68.0422 19.4374C67.9452 18.5605 67.5572 17.5375 67.7512 16.7093C68.1877 14.9069 68.6727 13.1044 68.9637 11.2532C69.1092 10.1815 69.0607 9.49946 69.1577 8.3303C69.2062 8.08672 69.2062 7.74572 69.1092 7.50214C69.0122 7.20985 68.8182 6.96627 68.5757 6.86884C68.4787 6.82013 68.4302 6.7227 68.3817 6.57655C68.3332 6.13811 68.0422 5.50482 67.7997 5.1151C67.7512 5.01767 67.6058 5.01767 67.5573 5.1151C67.1693 5.79711 67.1693 7.50214 67.3633 8.13544C67.5087 8.62259 67.7997 9.01231 67.9937 9.45075C68.3332 10.3276 67.8967 11.1558 67.5573 12.0327C66.4903 15.0043 65.8598 16.9529 65.8598 17.9759C66.0538 20.8501 66.9753 23.4807 67.1693 26.3549C67.2663 27.6702 67.4118 30.3009 67.4118 30.3009C67.6057 33.3699 68.0422 37.8517 67.0238 40.9208C65.4234 45.9384 67.3633 49.0562 70.0791 57.4352C73.4255 67.8116 60.5251 81.1108 56.7423 84.7157L55.2874 86.0798C55.3843 86.1772 55.4813 86.2259 55.5783 86.2746C55.7238 86.3721 55.8208 86.4695 55.9663 86.5669C59.7006 89.3437 64.3564 90.9513 69.3517 90.9513C81.864 90.9513 92.0485 81.0134 92.0485 68.1526C92.0485 55.3405 79.7302 47.3999 77.3053 45.5974C79.3422 47.8383 81.3306 50.1279 83.0765 52.515C92.8245 66.0578 89.1872 79.3083 76.9173 84.9593ZM75.5594 30.6419C75.5594 30.6419 81.2336 35.9031 81.3791 36.4877C81.5246 37.0723 79.3422 37.9979 77.6448 39.3619C75.9473 40.7259 75.9958 41.0182 75.3169 40.9695C74.6379 40.8721 74.9289 39.9465 73.474 39.4593C73.474 39.4106 70.6126 37.0236 75.5594 30.6419ZM72.213 16.7093C72.31 17.1477 72.116 17.4888 72.116 17.44C72.0675 17.44 72.019 17.44 71.922 17.44C71.7765 17.44 71.5826 17.44 71.4371 17.44C71.6311 16.9042 72.213 16.7093 72.213 16.7093ZM70.6126 15.8324C71.0006 16.9529 70.3216 17.1478 70.3216 17.1478C69.9336 16.6119 70.6126 15.8324 70.6126 15.8324ZM69.5457 16.8555C69.7396 17.3913 69.4972 17.781 69.4972 17.781C69.3517 17.3426 69.5457 16.8555 69.5457 16.8555ZM70.0791 26.7934C69.5457 26.6472 69.4002 26.5011 69.1092 25.9652C68.9637 25.6729 68.8182 25.0883 68.6727 24.3576C68.5272 24.2602 68.3817 24.1627 68.2847 24.0166C68.1877 23.8704 68.1392 23.7243 68.1392 23.5782C68.1392 23.432 68.1392 23.2859 68.1877 23.1884C68.4302 22.409 68.0907 22.068 67.8967 21.8731C68.0422 22.0193 68.3332 22.1654 68.3817 22.4577C68.4302 22.9449 68.0422 23.6756 68.6242 24.0166C68.6727 24.0653 68.7212 24.0653 68.7697 24.114C68.8182 24.114 68.8182 24.114 68.8667 24.1627H68.9152C68.9637 24.1627 69.0122 24.2115 69.1092 24.2115C69.8851 24.3576 70.4671 24.3576 70.6126 24.6499C70.8551 25.0396 71.0976 25.4781 71.0976 25.8191C71.1461 26.2575 70.6611 26.5498 70.0791 26.7934Z" fill="url(#paint32_linear)"/>
<defs>
<linearGradient id="paint0_linear" x1="21.594" y1="18.5945" x2="91.6071" y2="77.08" gradientUnits="userSpaceOnUse">
<stop stop-color="#EE8522"/>
<stop offset="0.1212" stop-color="#F4A12B"/>
<stop offset="0.2819" stop-color="#FDC53C"/>
<stop offset="0.3619" stop-color="#FFD343"/>
<stop offset="0.4308" stop-color="#F8C53D"/>
<stop offset="0.5162" stop-color="#F2BB38"/>
<stop offset="0.5969" stop-color="#F0B736"/>
<stop offset="0.6795" stop-color="#F0B334"/>
<stop offset="0.7886" stop-color="#F0A72F"/>
<stop offset="0.912" stop-color="#EF9527"/>
<stop offset="1" stop-color="#EE8522"/>
</linearGradient>
<linearGradient id="paint1_linear" x1="21.5942" y1="18.5945" x2="91.6073" y2="77.08" gradientUnits="userSpaceOnUse">
<stop stop-color="#EE8522"/>
<stop offset="0.1212" stop-color="#F4A12B"/>
<stop offset="0.2819" stop-color="#FDC53C"/>
<stop offset="0.3619" stop-color="#FFD343"/>
<stop offset="0.4308" stop-color="#F8C53D"/>
<stop offset="0.5162" stop-color="#F2BB38"/>
<stop offset="0.5969" stop-color="#F0B736"/>
<stop offset="0.6795" stop-color="#F0B334"/>
<stop offset="0.7886" stop-color="#F0A72F"/>
<stop offset="0.912" stop-color="#EF9527"/>
<stop offset="1" stop-color="#EE8522"/>
</linearGradient>
<linearGradient id="paint2_linear" x1="21.594" y1="18.5946" x2="91.6071" y2="77.0801" gradientUnits="userSpaceOnUse">
<stop stop-color="#EE8522"/>
<stop offset="0.1212" stop-color="#F4A12B"/>
<stop offset="0.2819" stop-color="#FDC53C"/>
<stop offset="0.3619" stop-color="#FFD343"/>
<stop offset="0.4308" stop-color="#F8C53D"/>
<stop offset="0.5162" stop-color="#F2BB38"/>
<stop offset="0.5969" stop-color="#F0B736"/>
<stop offset="0.6795" stop-color="#F0B334"/>
<stop offset="0.7886" stop-color="#F0A72F"/>
<stop offset="0.912" stop-color="#EF9527"/>
<stop offset="1" stop-color="#EE8522"/>
</linearGradient>
<linearGradient id="paint3_linear" x1="21.594" y1="18.5945" x2="91.6071" y2="77.08" gradientUnits="userSpaceOnUse">
<stop stop-color="#EE8522"/>
<stop offset="0.1212" stop-color="#F4A12B"/>
<stop offset="0.2819" stop-color="#FDC53C"/>
<stop offset="0.3619" stop-color="#FFD343"/>
<stop offset="0.4308" stop-color="#F8C53D"/>
<stop offset="0.5162" stop-color="#F2BB38"/>
<stop offset="0.5969" stop-color="#F0B736"/>
<stop offset="0.6795" stop-color="#F0B334"/>
<stop offset="0.7886" stop-color="#F0A72F"/>
<stop offset="0.912" stop-color="#EF9527"/>
<stop offset="1" stop-color="#EE8522"/>
</linearGradient>
<linearGradient id="paint4_linear" x1="21.5942" y1="18.5946" x2="91.6073" y2="77.0803" gradientUnits="userSpaceOnUse">
<stop stop-color="#EE8522"/>
<stop offset="0.1212" stop-color="#F4A12B"/>
<stop offset="0.2819" stop-color="#FDC53C"/>
<stop offset="0.3619" stop-color="#FFD343"/>
<stop offset="0.4308" stop-color="#F8C53D"/>
<stop offset="0.5162" stop-color="#F2BB38"/>
<stop offset="0.5969" stop-color="#F0B736"/>
<stop offset="0.6795" stop-color="#F0B334"/>
<stop offset="0.7886" stop-color="#F0A72F"/>
<stop offset="0.912" stop-color="#EF9527"/>
<stop offset="1" stop-color="#EE8522"/>
</linearGradient>
<linearGradient id="paint5_linear" x1="21.5941" y1="18.5946" x2="91.6072" y2="77.08" gradientUnits="userSpaceOnUse">
<stop stop-color="#EE8522"/>
<stop offset="0.1212" stop-color="#F4A12B"/>
<stop offset="0.2819" stop-color="#FDC53C"/>
<stop offset="0.3619" stop-color="#FFD343"/>
<stop offset="0.4308" stop-color="#F8C53D"/>
<stop offset="0.5162" stop-color="#F2BB38"/>
<stop offset="0.5969" stop-color="#F0B736"/>
<stop offset="0.6795" stop-color="#F0B334"/>
<stop offset="0.7886" stop-color="#F0A72F"/>
<stop offset="0.912" stop-color="#EF9527"/>
<stop offset="1" stop-color="#EE8522"/>
</linearGradient>
<linearGradient id="paint6_linear" x1="21.5941" y1="18.5946" x2="91.6072" y2="77.0802" gradientUnits="userSpaceOnUse">
<stop stop-color="#EE8522"/>
<stop offset="0.1212" stop-color="#F4A12B"/>
<stop offset="0.2819" stop-color="#FDC53C"/>
<stop offset="0.3619" stop-color="#FFD343"/>
<stop offset="0.4308" stop-color="#F8C53D"/>
<stop offset="0.5162" stop-color="#F2BB38"/>
<stop offset="0.5969" stop-color="#F0B736"/>
<stop offset="0.6795" stop-color="#F0B334"/>
<stop offset="0.7886" stop-color="#F0A72F"/>
<stop offset="0.912" stop-color="#EF9527"/>
<stop offset="1" stop-color="#EE8522"/>
</linearGradient>
<linearGradient id="paint7_linear" x1="21.5942" y1="18.5946" x2="91.6072" y2="77.0802" gradientUnits="userSpaceOnUse">
<stop stop-color="#EE8522"/>
<stop offset="0.1212" stop-color="#F4A12B"/>
<stop offset="0.2819" stop-color="#FDC53C"/>
<stop offset="0.3619" stop-color="#FFD343"/>
<stop offset="0.4308" stop-color="#F8C53D"/>
<stop offset="0.5162" stop-color="#F2BB38"/>
<stop offset="0.5969" stop-color="#F0B736"/>
<stop offset="0.6795" stop-color="#F0B334"/>
<stop offset="0.7886" stop-color="#F0A72F"/>
<stop offset="0.912" stop-color="#EF9527"/>
<stop offset="1" stop-color="#EE8522"/>
</linearGradient>
<linearGradient id="paint8_linear" x1="21.5941" y1="18.5946" x2="91.6071" y2="77.0802" gradientUnits="userSpaceOnUse">
<stop stop-color="#EE8522"/>
<stop offset="0.1212" stop-color="#F4A12B"/>
<stop offset="0.2819" stop-color="#FDC53C"/>
<stop offset="0.3619" stop-color="#FFD343"/>
<stop offset="0.4308" stop-color="#F8C53D"/>
<stop offset="0.5162" stop-color="#F2BB38"/>
<stop offset="0.5969" stop-color="#F0B736"/>
<stop offset="0.6795" stop-color="#F0B334"/>
<stop offset="0.7886" stop-color="#F0A72F"/>
<stop offset="0.912" stop-color="#EF9527"/>
<stop offset="1" stop-color="#EE8522"/>
</linearGradient>
<linearGradient id="paint9_linear" x1="21.5942" y1="18.5945" x2="91.6073" y2="77.0801" gradientUnits="userSpaceOnUse">
<stop stop-color="#EE8522"/>
<stop offset="0.1212" stop-color="#F4A12B"/>
<stop offset="0.2819" stop-color="#FDC53C"/>
<stop offset="0.3619" stop-color="#FFD343"/>
<stop offset="0.4308" stop-color="#F8C53D"/>
<stop offset="0.5162" stop-color="#F2BB38"/>
<stop offset="0.5969" stop-color="#F0B736"/>
<stop offset="0.6795" stop-color="#F0B334"/>
<stop offset="0.7886" stop-color="#F0A72F"/>
<stop offset="0.912" stop-color="#EF9527"/>
<stop offset="1" stop-color="#EE8522"/>
</linearGradient>
<linearGradient id="paint10_linear" x1="21.594" y1="18.5946" x2="91.607" y2="77.0801" gradientUnits="userSpaceOnUse">
<stop stop-color="#EE8522"/>
<stop offset="0.1212" stop-color="#F4A12B"/>
<stop offset="0.2819" stop-color="#FDC53C"/>
<stop offset="0.3619" stop-color="#FFD343"/>
<stop offset="0.4308" stop-color="#F8C53D"/>
<stop offset="0.5162" stop-color="#F2BB38"/>
<stop offset="0.5969" stop-color="#F0B736"/>
<stop offset="0.6795" stop-color="#F0B334"/>
<stop offset="0.7886" stop-color="#F0A72F"/>
<stop offset="0.912" stop-color="#EF9527"/>
<stop offset="1" stop-color="#EE8522"/>
</linearGradient>
<linearGradient id="paint11_linear" x1="21.5942" y1="18.5946" x2="91.6073" y2="77.0801" gradientUnits="userSpaceOnUse">
<stop stop-color="#EE8522"/>
<stop offset="0.1212" stop-color="#F4A12B"/>
<stop offset="0.2819" stop-color="#FDC53C"/>
<stop offset="0.3619" stop-color="#FFD343"/>
<stop offset="0.4308" stop-color="#F8C53D"/>
<stop offset="0.5162" stop-color="#F2BB38"/>
<stop offset="0.5969" stop-color="#F0B736"/>
<stop offset="0.6795" stop-color="#F0B334"/>
<stop offset="0.7886" stop-color="#F0A72F"/>
<stop offset="0.912" stop-color="#EF9527"/>
<stop offset="1" stop-color="#EE8522"/>
</linearGradient>
<linearGradient id="paint12_linear" x1="21.5941" y1="18.5946" x2="91.6072" y2="77.0802" gradientUnits="userSpaceOnUse">
<stop stop-color="#EE8522"/>
<stop offset="0.1212" stop-color="#F4A12B"/>
<stop offset="0.2819" stop-color="#FDC53C"/>
<stop offset="0.3619" stop-color="#FFD343"/>
<stop offset="0.4308" stop-color="#F8C53D"/>
<stop offset="0.5162" stop-color="#F2BB38"/>
<stop offset="0.5969" stop-color="#F0B736"/>
<stop offset="0.6795" stop-color="#F0B334"/>
<stop offset="0.7886" stop-color="#F0A72F"/>
<stop offset="0.912" stop-color="#EF9527"/>
<stop offset="1" stop-color="#EE8522"/>
</linearGradient>
<linearGradient id="paint13_linear" x1="21.5941" y1="18.5947" x2="91.607" y2="77.0803" gradientUnits="userSpaceOnUse">
<stop stop-color="#EE8522"/>
<stop offset="0.1212" stop-color="#F4A12B"/>
<stop offset="0.2819" stop-color="#FDC53C"/>
<stop offset="0.3619" stop-color="#FFD343"/>
<stop offset="0.4308" stop-color="#F8C53D"/>
<stop offset="0.5162" stop-color="#F2BB38"/>
<stop offset="0.5969" stop-color="#F0B736"/>
<stop offset="0.6795" stop-color="#F0B334"/>
<stop offset="0.7886" stop-color="#F0A72F"/>
<stop offset="0.912" stop-color="#EF9527"/>
<stop offset="1" stop-color="#EE8522"/>
</linearGradient>
<linearGradient id="paint14_linear" x1="21.5942" y1="18.5947" x2="91.6072" y2="77.0803" gradientUnits="userSpaceOnUse">
<stop stop-color="#EE8522"/>
<stop offset="0.1212" stop-color="#F4A12B"/>
<stop offset="0.2819" stop-color="#FDC53C"/>
<stop offset="0.3619" stop-color="#FFD343"/>
<stop offset="0.4308" stop-color="#F8C53D"/>
<stop offset="0.5162" stop-color="#F2BB38"/>
<stop offset="0.5969" stop-color="#F0B736"/>
<stop offset="0.6795" stop-color="#F0B334"/>
<stop offset="0.7886" stop-color="#F0A72F"/>
<stop offset="0.912" stop-color="#EF9527"/>
<stop offset="1" stop-color="#EE8522"/>
</linearGradient>
<linearGradient id="paint15_linear" x1="21.594" y1="18.5947" x2="91.607" y2="77.0802" gradientUnits="userSpaceOnUse">
<stop stop-color="#EE8522"/>
<stop offset="0.1212" stop-color="#F4A12B"/>
<stop offset="0.2819" stop-color="#FDC53C"/>
<stop offset="0.3619" stop-color="#FFD343"/>
<stop offset="0.4308" stop-color="#F8C53D"/>
<stop offset="0.5162" stop-color="#F2BB38"/>
<stop offset="0.5969" stop-color="#F0B736"/>
<stop offset="0.6795" stop-color="#F0B334"/>
<stop offset="0.7886" stop-color="#F0A72F"/>
<stop offset="0.912" stop-color="#EF9527"/>
<stop offset="1" stop-color="#EE8522"/>
</linearGradient>
<linearGradient id="paint16_linear" x1="21.594" y1="18.5946" x2="91.6071" y2="77.0802" gradientUnits="userSpaceOnUse">
<stop stop-color="#EE8522"/>
<stop offset="0.1212" stop-color="#F4A12B"/>
<stop offset="0.2819" stop-color="#FDC53C"/>
<stop offset="0.3619" stop-color="#FFD343"/>
<stop offset="0.4308" stop-color="#F8C53D"/>
<stop offset="0.5162" stop-color="#F2BB38"/>
<stop offset="0.5969" stop-color="#F0B736"/>
<stop offset="0.6795" stop-color="#F0B334"/>
<stop offset="0.7886" stop-color="#F0A72F"/>
<stop offset="0.912" stop-color="#EF9527"/>
<stop offset="1" stop-color="#EE8522"/>
</linearGradient>
<linearGradient id="paint17_linear" x1="21.5941" y1="18.5945" x2="91.6072" y2="77.0801" gradientUnits="userSpaceOnUse">
<stop stop-color="#EE8522"/>
<stop offset="0.1212" stop-color="#F4A12B"/>
<stop offset="0.2819" stop-color="#FDC53C"/>
<stop offset="0.3619" stop-color="#FFD343"/>
<stop offset="0.4308" stop-color="#F8C53D"/>
<stop offset="0.5162" stop-color="#F2BB38"/>
<stop offset="0.5969" stop-color="#F0B736"/>
<stop offset="0.6795" stop-color="#F0B334"/>
<stop offset="0.7886" stop-color="#F0A72F"/>
<stop offset="0.912" stop-color="#EF9527"/>
<stop offset="1" stop-color="#EE8522"/>
</linearGradient>
<linearGradient id="paint18_linear" x1="21.5941" y1="18.5946" x2="91.6072" y2="77.0802" gradientUnits="userSpaceOnUse">
<stop stop-color="#EE8522"/>
<stop offset="0.1212" stop-color="#F4A12B"/>
<stop offset="0.2819" stop-color="#FDC53C"/>
<stop offset="0.3619" stop-color="#FFD343"/>
<stop offset="0.4308" stop-color="#F8C53D"/>
<stop offset="0.5162" stop-color="#F2BB38"/>
<stop offset="0.5969" stop-color="#F0B736"/>
<stop offset="0.6795" stop-color="#F0B334"/>
<stop offset="0.7886" stop-color="#F0A72F"/>
<stop offset="0.912" stop-color="#EF9527"/>
<stop offset="1" stop-color="#EE8522"/>
</linearGradient>
<linearGradient id="paint19_linear" x1="21.5941" y1="18.5946" x2="91.6071" y2="77.0803" gradientUnits="userSpaceOnUse">
<stop stop-color="#EE8522"/>
<stop offset="0.1212" stop-color="#F4A12B"/>
<stop offset="0.2819" stop-color="#FDC53C"/>
<stop offset="0.3619" stop-color="#FFD343"/>
<stop offset="0.4308" stop-color="#F8C53D"/>
<stop offset="0.5162" stop-color="#F2BB38"/>
<stop offset="0.5969" stop-color="#F0B736"/>
<stop offset="0.6795" stop-color="#F0B334"/>
<stop offset="0.7886" stop-color="#F0A72F"/>
<stop offset="0.912" stop-color="#EF9527"/>
<stop offset="1" stop-color="#EE8522"/>
</linearGradient>
<linearGradient id="paint20_linear" x1="21.5941" y1="18.5945" x2="91.6073" y2="77.0801" gradientUnits="userSpaceOnUse">
<stop stop-color="#EE8522"/>
<stop offset="0.1212" stop-color="#F4A12B"/>
<stop offset="0.2819" stop-color="#FDC53C"/>
<stop offset="0.3619" stop-color="#FFD343"/>
<stop offset="0.4308" stop-color="#F8C53D"/>
<stop offset="0.5162" stop-color="#F2BB38"/>
<stop offset="0.5969" stop-color="#F0B736"/>
<stop offset="0.6795" stop-color="#F0B334"/>
<stop offset="0.7886" stop-color="#F0A72F"/>
<stop offset="0.912" stop-color="#EF9527"/>
<stop offset="1" stop-color="#EE8522"/>
</linearGradient>
<linearGradient id="paint21_linear" x1="21.5941" y1="18.5946" x2="91.6071" y2="77.0803" gradientUnits="userSpaceOnUse">
<stop stop-color="#EE8522"/>
<stop offset="0.1212" stop-color="#F4A12B"/>
<stop offset="0.2819" stop-color="#FDC53C"/>
<stop offset="0.3619" stop-color="#FFD343"/>
<stop offset="0.4308" stop-color="#F8C53D"/>
<stop offset="0.5162" stop-color="#F2BB38"/>
<stop offset="0.5969" stop-color="#F0B736"/>
<stop offset="0.6795" stop-color="#F0B334"/>
<stop offset="0.7886" stop-color="#F0A72F"/>
<stop offset="0.912" stop-color="#EF9527"/>
<stop offset="1" stop-color="#EE8522"/>
</linearGradient>
<linearGradient id="paint22_linear" x1="21.594" y1="18.5945" x2="91.6072" y2="77.0801" gradientUnits="userSpaceOnUse">
<stop stop-color="#EE8522"/>
<stop offset="0.1212" stop-color="#F4A12B"/>
<stop offset="0.2819" stop-color="#FDC53C"/>
<stop offset="0.3619" stop-color="#FFD343"/>
<stop offset="0.4308" stop-color="#F8C53D"/>
<stop offset="0.5162" stop-color="#F2BB38"/>
<stop offset="0.5969" stop-color="#F0B736"/>
<stop offset="0.6795" stop-color="#F0B334"/>
<stop offset="0.7886" stop-color="#F0A72F"/>
<stop offset="0.912" stop-color="#EF9527"/>
<stop offset="1" stop-color="#EE8522"/>
</linearGradient>
<linearGradient id="paint23_linear" x1="21.5942" y1="18.5946" x2="91.6072" y2="77.0802" gradientUnits="userSpaceOnUse">
<stop stop-color="#EE8522"/>
<stop offset="0.1212" stop-color="#F4A12B"/>
<stop offset="0.2819" stop-color="#FDC53C"/>
<stop offset="0.3619" stop-color="#FFD343"/>
<stop offset="0.4308" stop-color="#F8C53D"/>
<stop offset="0.5162" stop-color="#F2BB38"/>
<stop offset="0.5969" stop-color="#F0B736"/>
<stop offset="0.6795" stop-color="#F0B334"/>
<stop offset="0.7886" stop-color="#F0A72F"/>
<stop offset="0.912" stop-color="#EF9527"/>
<stop offset="1" stop-color="#EE8522"/>
</linearGradient>
<linearGradient id="paint24_linear" x1="21.5941" y1="18.5945" x2="91.6073" y2="77.0801" gradientUnits="userSpaceOnUse">
<stop stop-color="#EE8522"/>
<stop offset="0.1212" stop-color="#F4A12B"/>
<stop offset="0.2819" stop-color="#FDC53C"/>
<stop offset="0.3619" stop-color="#FFD343"/>
<stop offset="0.4308" stop-color="#F8C53D"/>
<stop offset="0.5162" stop-color="#F2BB38"/>
<stop offset="0.5969" stop-color="#F0B736"/>
<stop offset="0.6795" stop-color="#F0B334"/>
<stop offset="0.7886" stop-color="#F0A72F"/>
<stop offset="0.912" stop-color="#EF9527"/>
<stop offset="1" stop-color="#EE8522"/>
</linearGradient>
<linearGradient id="paint25_linear" x1="21.5941" y1="18.5946" x2="91.6071" y2="77.0803" gradientUnits="userSpaceOnUse">
<stop stop-color="#EE8522"/>
<stop offset="0.1212" stop-color="#F4A12B"/>
<stop offset="0.2819" stop-color="#FDC53C"/>
<stop offset="0.3619" stop-color="#FFD343"/>
<stop offset="0.4308" stop-color="#F8C53D"/>
<stop offset="0.5162" stop-color="#F2BB38"/>
<stop offset="0.5969" stop-color="#F0B736"/>
<stop offset="0.6795" stop-color="#F0B334"/>
<stop offset="0.7886" stop-color="#F0A72F"/>
<stop offset="0.912" stop-color="#EF9527"/>
<stop offset="1" stop-color="#EE8522"/>
</linearGradient>
<linearGradient id="paint26_linear" x1="21.594" y1="18.5945" x2="91.6072" y2="77.0801" gradientUnits="userSpaceOnUse">
<stop stop-color="#EE8522"/>
<stop offset="0.1212" stop-color="#F4A12B"/>
<stop offset="0.2819" stop-color="#FDC53C"/>
<stop offset="0.3619" stop-color="#FFD343"/>
<stop offset="0.4308" stop-color="#F8C53D"/>
<stop offset="0.5162" stop-color="#F2BB38"/>
<stop offset="0.5969" stop-color="#F0B736"/>
<stop offset="0.6795" stop-color="#F0B334"/>
<stop offset="0.7886" stop-color="#F0A72F"/>
<stop offset="0.912" stop-color="#EF9527"/>
<stop offset="1" stop-color="#EE8522"/>
</linearGradient>
<linearGradient id="paint27_linear" x1="21.5942" y1="18.5946" x2="91.6072" y2="77.0802" gradientUnits="userSpaceOnUse">
<stop stop-color="#EE8522"/>
<stop offset="0.1212" stop-color="#F4A12B"/>
<stop offset="0.2819" stop-color="#FDC53C"/>
<stop offset="0.3619" stop-color="#FFD343"/>
<stop offset="0.4308" stop-color="#F8C53D"/>
<stop offset="0.5162" stop-color="#F2BB38"/>
<stop offset="0.5969" stop-color="#F0B736"/>
<stop offset="0.6795" stop-color="#F0B334"/>
<stop offset="0.7886" stop-color="#F0A72F"/>
<stop offset="0.912" stop-color="#EF9527"/>
<stop offset="1" stop-color="#EE8522"/>
</linearGradient>
<linearGradient id="paint28_linear" x1="21.5941" y1="18.5945" x2="91.6073" y2="77.0801" gradientUnits="userSpaceOnUse">
<stop stop-color="#EE8522"/>
<stop offset="0.1212" stop-color="#F4A12B"/>
<stop offset="0.2819" stop-color="#FDC53C"/>
<stop offset="0.3619" stop-color="#FFD343"/>
<stop offset="0.4308" stop-color="#F8C53D"/>
<stop offset="0.5162" stop-color="#F2BB38"/>
<stop offset="0.5969" stop-color="#F0B736"/>
<stop offset="0.6795" stop-color="#F0B334"/>
<stop offset="0.7886" stop-color="#F0A72F"/>
<stop offset="0.912" stop-color="#EF9527"/>
<stop offset="1" stop-color="#EE8522"/>
</linearGradient>
<linearGradient id="paint29_linear" x1="21.5941" y1="18.5946" x2="91.6071" y2="77.0803" gradientUnits="userSpaceOnUse">
<stop stop-color="#EE8522"/>
<stop offset="0.1212" stop-color="#F4A12B"/>
<stop offset="0.2819" stop-color="#FDC53C"/>
<stop offset="0.3619" stop-color="#FFD343"/>
<stop offset="0.4308" stop-color="#F8C53D"/>
<stop offset="0.5162" stop-color="#F2BB38"/>
<stop offset="0.5969" stop-color="#F0B736"/>
<stop offset="0.6795" stop-color="#F0B334"/>
<stop offset="0.7886" stop-color="#F0A72F"/>
<stop offset="0.912" stop-color="#EF9527"/>
<stop offset="1" stop-color="#EE8522"/>
</linearGradient>
<linearGradient id="paint30_linear" x1="21.594" y1="18.5945" x2="91.6072" y2="77.0801" gradientUnits="userSpaceOnUse">
<stop stop-color="#EE8522"/>
<stop offset="0.1212" stop-color="#F4A12B"/>
<stop offset="0.2819" stop-color="#FDC53C"/>
<stop offset="0.3619" stop-color="#FFD343"/>
<stop offset="0.4308" stop-color="#F8C53D"/>
<stop offset="0.5162" stop-color="#F2BB38"/>
<stop offset="0.5969" stop-color="#F0B736"/>
<stop offset="0.6795" stop-color="#F0B334"/>
<stop offset="0.7886" stop-color="#F0A72F"/>
<stop offset="0.912" stop-color="#EF9527"/>
<stop offset="1" stop-color="#EE8522"/>
</linearGradient>
<linearGradient id="paint31_linear" x1="21.5942" y1="18.5946" x2="91.6072" y2="77.0802" gradientUnits="userSpaceOnUse">
<stop stop-color="#EE8522"/>
<stop offset="0.1212" stop-color="#F4A12B"/>
<stop offset="0.2819" stop-color="#FDC53C"/>
<stop offset="0.3619" stop-color="#FFD343"/>
<stop offset="0.4308" stop-color="#F8C53D"/>
<stop offset="0.5162" stop-color="#F2BB38"/>
<stop offset="0.5969" stop-color="#F0B736"/>
<stop offset="0.6795" stop-color="#F0B334"/>
<stop offset="0.7886" stop-color="#F0A72F"/>
<stop offset="0.912" stop-color="#EF9527"/>
<stop offset="1" stop-color="#EE8522"/>
</linearGradient>
<linearGradient id="paint32_linear" x1="21.5942" y1="18.5945" x2="91.6072" y2="77.0801" gradientUnits="userSpaceOnUse">
<stop stop-color="#EE8522"/>
<stop offset="0.1212" stop-color="#F4A12B"/>
<stop offset="0.2819" stop-color="#FDC53C"/>
<stop offset="0.3619" stop-color="#FFD343"/>
<stop offset="0.4308" stop-color="#F8C53D"/>
<stop offset="0.5162" stop-color="#F2BB38"/>
<stop offset="0.5969" stop-color="#F0B736"/>
<stop offset="0.6795" stop-color="#F0B334"/>
<stop offset="0.7886" stop-color="#F0A72F"/>
<stop offset="0.912" stop-color="#EF9527"/>
<stop offset="1" stop-color="#EE8522"/>
</linearGradient>
</defs>
</svg>
